<svg width="26" height="26" viewBox="0 0 26 26" fill="none" xmlns="http://www.w3.org/2000/svg">
<path d="M12.6798 0.056407C12.4944 0.120133 11.1504 1.43522 6.31292 6.26687C2.94119 9.6386 0.143006 12.4715 0.090866 12.5642C-0.0887277 12.906 0.00975921 13.4622 0.282046 13.7055C0.560127 13.9488 1.05835 14.0242 1.35382 13.8735C1.42913 13.833 4.08248 11.2202 7.23985 8.06281L12.9926 2.31581L18.7686 8.09178C23.9537 13.271 24.5735 13.8735 24.7937 13.9315C25.5005 14.1111 26.1493 13.4622 25.9697 12.7554C25.9118 12.5353 25.2745 11.8806 19.7535 6.35377C16.3702 2.96467 13.5372 0.160686 13.4561 0.11434C13.2128 -0.013113 12.9231 -0.0362864 12.6798 0.056407Z" fill="white"/>
<path d="M3.21351 14.9742C3.10923 15.038 2.97598 15.1712 2.91225 15.2755C2.80218 15.4609 2.79639 15.5767 2.79639 18.7747C2.79639 21.8683 2.80218 22.1058 2.91225 22.5114C3.12661 23.3398 3.53214 24.0524 4.11727 24.6375C4.54598 25.0662 4.88199 25.298 5.47871 25.5761C6.39405 25.999 6.06963 25.9816 13.0101 25.9816C19.0293 25.9816 19.2379 25.9758 19.7014 25.8657C21.0107 25.5529 22.094 24.6781 22.7313 23.4325C23.1716 22.5635 23.1542 22.7547 23.1716 18.9137C23.189 15.542 23.189 15.4609 23.0731 15.2755C22.8993 14.9974 22.6386 14.8584 22.262 14.8584C21.8855 14.8584 21.6248 14.9974 21.451 15.2755C21.3409 15.4609 21.3351 15.5767 21.3351 18.4792C21.3351 21.8104 21.3177 21.9958 20.9817 22.6272C20.582 23.3688 19.7825 23.9423 18.9598 24.0698C18.45 24.1451 7.53534 24.1451 7.02553 24.0698C6.20287 23.9423 5.40339 23.3688 5.00944 22.633C4.66764 21.99 4.65026 21.8162 4.65026 18.4792C4.65026 15.5767 4.64446 15.4609 4.53439 15.2755C4.47066 15.1712 4.33742 15.038 4.23314 14.9742C3.97244 14.8178 3.47421 14.8178 3.21351 14.9742Z" fill="white"/>
</svg>
