<svg width="28" height="26" viewBox="0 0 28 26" fill="none" xmlns="http://www.w3.org/2000/svg">
<path d="M6.02425 0.00885226C6.09562 0.00851801 6.16698 0.00818376 6.24051 0.00783939C6.4372 0.00694702 6.63387 0.00720422 6.83055 0.00766355C7.04322 0.00795825 7.25588 0.00717989 7.46854 0.00654532C7.88461 0.00548028 8.30068 0.00542607 8.71675 0.0057517C9.05505 0.00600293 9.39334 0.0059125 9.73164 0.00558113C9.77986 0.00553468 9.82808 0.00548823 9.87776 0.00544038C9.97573 0.00534532 10.0737 0.00524985 10.1717 0.00515395C11.0896 0.00430275 12.0075 0.00463918 12.9253 0.00535164C13.7644 0.0059681 14.6034 0.00516479 15.4424 0.00368C16.3048 0.00216534 17.1672 0.00157011 18.0296 0.00198272C18.5134 0.00219926 18.9972 0.00206226 19.481 0.000974124C19.8929 5.93462e-05 20.3047 2.2386e-05 20.7165 0.00110265C20.9264 0.00163007 21.1364 0.00176607 21.3463 0.000813959C21.5743 -0.000207205 21.8022 0.000710474 22.0302 0.00180643C22.096 0.00121031 22.1618 0.000614188 22.2296 0C22.7679 0.00531267 23.2653 0.124317 23.6799 0.525545C23.7557 0.598149 23.7557 0.598149 23.8331 0.672219C23.8887 0.727854 23.9441 0.78371 23.9994 0.839743C24.0312 0.871935 24.063 0.904126 24.0958 0.937293C24.2664 1.11041 24.4358 1.28474 24.6046 1.4599C24.7754 1.63678 24.9498 1.80824 25.127 1.97726C25.258 2.10321 25.3868 2.23169 25.5157 2.36031C25.6831 2.52725 25.8511 2.69316 26.0212 2.85682C26.237 3.06474 26.45 3.27604 26.6624 3.48837C26.7591 3.58457 26.8564 3.68009 26.9542 3.77493C27.4876 4.29464 27.9303 4.74761 27.9978 5.56556C28.0309 6.34104 27.6924 6.88633 27.2858 7.47975C27.1951 7.61266 27.1058 7.74659 27.0167 7.88084C26.8504 8.13148 26.6834 8.38157 26.5162 8.63151C26.3509 8.87865 26.1861 9.1261 26.0212 9.37352C25.9556 9.47179 25.8901 9.57006 25.8246 9.66832C25.7922 9.71696 25.7597 9.76561 25.7263 9.81572C25.4315 10.2579 25.4315 10.2579 25.3332 10.4053C25.2677 10.5036 25.2022 10.6018 25.1367 10.7C24.9724 10.9466 24.8079 11.193 24.6432 11.4393C24.3209 11.9216 24.0003 12.405 23.6835 12.8918C23.4293 13.2822 23.171 13.6687 22.9091 14.0529C22.3985 14.8022 21.8978 15.5595 21.4022 16.321C21.177 16.6661 20.947 17.0068 20.715 17.3463C20.505 17.6546 20.2999 17.9664 20.0962 18.2797C19.8665 18.6328 19.6345 18.9836 19.3977 19.3309C18.8905 20.0747 18.3911 20.8247 17.8989 21.5807C17.6447 21.9711 17.3866 22.3577 17.1245 22.7417C16.9403 23.0119 16.758 23.2836 16.5769 23.5564C16.412 23.8047 16.2464 24.0523 16.0807 24.2999C16.0478 24.3491 16.0149 24.3982 15.9811 24.4489C15.8849 24.5923 15.7881 24.7351 15.6911 24.8778C15.6626 24.9205 15.6341 24.9631 15.6048 25.007C15.2599 25.5104 14.9041 25.8289 14.3397 25.9756C13.8487 26.0451 13.3486 25.9759 12.9437 25.6411C12.648 25.3693 12.4231 25.062 12.1986 24.7188C12.1625 24.6646 12.1264 24.6105 12.0892 24.5547C12.0144 24.4423 11.9399 24.3298 11.8655 24.2171C11.7624 24.0609 11.6587 23.9052 11.5547 23.7498C11.3919 23.5064 11.2296 23.2627 11.0674 23.0188C10.9041 22.7733 10.7405 22.5281 10.5769 22.2828C10.5114 22.1845 10.4459 22.0863 10.3804 21.988C10.3479 21.9394 10.3155 21.8907 10.2821 21.8406C7.82503 18.1556 5.36799 14.4705 2.91095 10.7855C2.87852 10.7368 2.84608 10.6882 2.81266 10.6381C2.74718 10.5398 2.6817 10.4416 2.61623 10.3434C2.45188 10.0968 2.28741 9.85037 2.12273 9.60408C1.73741 9.02755 1.35416 8.44951 0.976255 7.86702C0.866699 7.69837 0.755537 7.53136 0.642361 7.36566C0.225069 6.75007 -0.0800443 6.16551 0.0186685 5.3704C0.170534 4.64447 0.601548 4.21204 1.08222 3.72183C1.11953 3.68331 1.15685 3.64479 1.1953 3.6051C1.42022 3.3739 1.64911 3.14845 1.88088 2.92568C2.02016 2.79115 2.15676 2.65352 2.29318 2.51547C2.506 2.30099 2.72062 2.08938 2.93794 1.88052C3.06799 1.75459 3.19664 1.62704 3.32514 1.49917C3.37249 1.45213 3.41983 1.40509 3.46861 1.35662C3.56421 1.26093 3.65928 1.16461 3.75381 1.06763C4.47763 0.330418 5.0296 0.00322255 6.02425 0.00885226ZM6.19637 1.02593C6.45367 1.36198 6.45367 1.36198 6.72638 1.67373C6.85732 1.81592 6.97983 1.96113 7.09845 2.11593C7.29228 2.36511 7.50151 2.59482 7.71271 2.82579C7.94889 3.08408 8.17676 3.34366 8.39147 3.62413C8.62986 3.91822 8.88852 4.19197 9.14277 4.4692C9.2468 4.58298 9.35026 4.69738 9.4537 4.81183C9.50578 4.75394 9.55787 4.69605 9.61154 4.63641C9.80649 4.41983 10.0016 4.20347 10.1968 3.98716C10.281 3.89386 10.3651 3.8005 10.4491 3.70709C10.5706 3.57213 10.6922 3.43738 10.8138 3.30266C10.8508 3.26146 10.8878 3.22026 10.9259 3.17781C11.1422 2.93874 11.3651 2.71247 11.5966 2.49155C11.7372 2.35548 11.8698 2.21186 12.002 2.06599C12.0796 1.9803 12.0796 1.9803 12.1589 1.89289C12.1849 1.86393 12.211 1.83497 12.2379 1.80513C12.3191 1.71503 12.4007 1.62527 12.4822 1.53554C12.5334 1.47889 12.5846 1.42225 12.6373 1.36389C12.6839 1.31238 12.7304 1.26087 12.7784 1.20779C12.8859 1.10774 12.8859 1.10774 12.8795 1.02593C10.6741 1.02593 8.46863 1.02593 6.19637 1.02593ZM15.1259 1.02593C15.3414 1.30377 15.5536 1.56989 15.7872 1.82695C15.8168 1.85974 15.8464 1.89253 15.8769 1.92632C15.939 1.99503 16.0012 2.06365 16.0635 2.1322C16.1575 2.23573 16.2512 2.33958 16.3448 2.44346C16.6224 2.75035 16.9018 3.05052 17.2005 3.33239C17.4656 3.59364 17.7121 3.87763 17.9621 4.15628C18.0195 4.22009 18.077 4.2839 18.1345 4.34768C18.2737 4.50223 18.4128 4.65697 18.5518 4.81183C18.5935 4.76565 18.6352 4.71947 18.6783 4.6719C18.8035 4.53355 18.9291 4.39557 19.055 4.25786C19.1376 4.16711 19.2203 4.07636 19.3029 3.9856C19.3439 3.94084 19.3849 3.89608 19.4271 3.84996C19.6564 3.5977 19.8743 3.33959 20.0854 3.06866C20.2401 2.87535 20.4067 2.69595 20.5735 2.51547C20.8157 2.25097 21.0503 1.98489 21.2701 1.69724C21.4132 1.51736 21.5691 1.35191 21.7246 1.18522C21.8156 1.103 21.8156 1.103 21.8091 1.02593C19.6037 1.02593 17.3982 1.02593 15.1259 1.02593ZM4.64843 1.58839C4.30801 1.9404 3.96295 2.28345 3.60726 2.61656C3.22351 2.97678 2.84832 3.34433 2.48079 3.7247C2.24484 3.96887 2.00434 4.20599 1.75966 4.43945C1.66586 4.52971 1.57226 4.62023 1.47885 4.71097C1.43599 4.75242 1.39314 4.79386 1.34898 4.83656C1.3177 4.86936 1.28643 4.90216 1.25421 4.93596C1.25421 4.95644 1.25421 4.97692 1.25421 4.99802C3.58938 4.99802 5.92455 4.99802 8.33048 4.99802C8.11239 4.71684 7.89851 4.45207 7.66006 4.19507C7.47549 3.99384 7.29429 3.7932 7.12653 3.57443C6.94892 3.34342 6.75631 3.13184 6.56141 2.91888C6.36769 2.7072 6.17608 2.49708 5.9998 2.26721C5.81604 2.02805 5.61744 1.80659 5.41713 1.58451C5.3843 1.54795 5.35147 1.51139 5.31765 1.47372C4.98523 1.10766 4.95939 1.26418 4.64843 1.58839ZM22.9323 1.21213C22.7531 1.4084 22.5741 1.60503 22.3953 1.80173C22.345 1.85678 22.2947 1.91182 22.2429 1.96853C21.9874 2.24992 21.7405 2.53441 21.5057 2.83706C21.3619 3.01791 21.2067 3.18516 21.0509 3.35333C20.8224 3.60274 20.6032 3.85481 20.3956 4.12597C20.2302 4.33062 20.0523 4.52151 19.8746 4.71307C19.8071 4.7863 19.7409 4.861 19.675 4.93596C19.675 4.95644 19.675 4.97692 19.675 4.99802C22.0101 4.99802 24.3453 4.99802 26.7512 4.99802C26.5208 4.68789 26.5208 4.68789 26.2669 4.42393C26.0787 4.24662 25.8948 4.06524 25.7123 3.88087C25.5359 3.70308 25.359 3.52637 25.1787 3.35333C24.9985 3.18029 24.8216 3.00358 24.6452 2.82579C24.3951 2.57398 24.1431 2.32532 23.887 2.08102C23.8563 2.05167 23.8256 2.02232 23.794 1.99208C23.6882 1.891 23.5823 1.7901 23.4764 1.68924C23.4249 1.64005 23.4249 1.64005 23.3723 1.58987C23.3397 1.5589 23.3071 1.52793 23.2734 1.49602C23.2442 1.46823 23.215 1.44045 23.185 1.41182C23.1046 1.33967 23.0185 1.2756 22.9323 1.21213ZM13.8295 1.38908C13.7571 1.4698 13.7571 1.4698 13.6832 1.55216C13.6565 1.58173 13.6298 1.6113 13.6023 1.64176C13.5137 1.74014 13.4254 1.83894 13.3371 1.93774C13.2754 2.0063 13.2137 2.07484 13.152 2.14334C12.9889 2.32443 12.8261 2.50586 12.6633 2.68739C12.4042 2.97646 12.1446 3.26514 11.8849 3.55359C11.7947 3.65392 11.7047 3.75446 11.6147 3.85503C11.3438 4.15678 11.0717 4.45211 10.7755 4.72397C10.6753 4.81913 10.6753 4.81913 10.5769 4.99802C12.838 4.99802 15.099 4.99802 17.4285 4.99802C17.3359 4.89561 17.2432 4.79321 17.1477 4.6877C17.0432 4.57154 16.9386 4.45535 16.8341 4.33912C16.5304 4.00149 16.2264 3.66416 15.9223 3.32701C15.7386 3.12336 15.555 2.91958 15.3716 2.71555C15.1939 2.51774 15.0158 2.32023 14.8376 2.12293C14.7697 2.04769 14.7019 1.97234 14.6342 1.89687C14.54 1.79183 14.4454 1.68718 14.3507 1.58261C14.3087 1.53547 14.3087 1.53547 14.2658 1.48737C14.0631 1.244 14.0631 1.244 13.8295 1.38908ZM0.973403 5.99104C1.05471 6.21568 1.10624 6.34992 1.22876 6.53458C1.25728 6.5779 1.2858 6.62122 1.31518 6.66585C1.34603 6.71198 1.37687 6.7581 1.40865 6.80563C1.44098 6.85452 1.47331 6.9034 1.50662 6.95377C1.60937 7.10894 1.71256 7.26375 1.81582 7.41851C1.88098 7.51653 1.94614 7.61455 2.01128 7.71258C2.17483 7.95843 2.33879 8.20392 2.50288 8.44932C2.66719 8.69516 2.83118 8.94125 2.9952 9.18733C3.06071 9.2856 3.12624 9.38386 3.19176 9.48213C10.6612 20.6847 10.6612 20.6847 10.7595 20.8322C10.8247 20.9299 10.8899 21.0276 10.955 21.1254C11.1245 21.3795 11.2939 21.6336 11.4632 21.8879C11.4982 21.9403 11.5331 21.9928 11.5692 22.0469C11.6354 22.1464 11.7017 22.2458 11.7679 22.3453C11.9685 22.6464 12.1706 22.9461 12.3741 23.2448C12.4633 23.0476 12.3899 22.8569 12.3488 22.6496C12.3394 22.6003 12.3299 22.5511 12.3202 22.5003C12.2882 22.3341 12.2557 22.168 12.2231 22.0019C12.2001 21.883 12.1772 21.764 12.1542 21.6451C12.0914 21.3198 12.0281 20.9946 11.9647 20.6694C11.8976 20.3251 11.831 19.9807 11.7644 19.6363C11.637 18.9785 11.5092 18.3208 11.3813 17.6631C11.2393 16.9326 11.0977 16.2021 10.9561 15.4715C10.7318 14.3144 10.5073 13.1574 10.2825 12.0004C9.89347 9.99737 9.50515 7.9942 9.11673 5.99104C6.42943 5.99104 3.74213 5.99104 0.973403 5.99104ZM10.0153 5.99104C10.254 7.36441 10.254 7.36441 10.5112 8.7332C10.5311 8.83545 10.5509 8.93771 10.5707 9.03997C10.6236 9.31321 10.6768 9.58641 10.73 9.85959C10.7868 10.152 10.8435 10.4444 10.9003 10.7368C11.0089 11.2968 11.1177 11.8567 11.2266 12.4166C11.3139 12.8654 11.4011 13.3141 11.4882 13.7629C11.5006 13.8265 11.513 13.8902 11.5257 13.9557C11.5507 14.0843 11.5756 14.2128 11.6006 14.3413C11.7606 15.1653 11.9207 15.9893 12.0809 16.8132C12.3327 18.1087 12.5841 19.4042 12.8343 20.7001C12.9137 21.1111 12.9932 21.5222 13.0728 21.9332C13.1418 22.29 13.2106 22.6469 13.2792 23.0038C13.32 23.2154 13.361 23.4269 13.402 23.6384C13.4202 23.7325 13.4384 23.8267 13.4564 23.9208C13.4801 24.0451 13.5043 24.1693 13.5285 24.2935C13.5416 24.3614 13.5547 24.4293 13.5682 24.4993C13.6058 24.6563 13.6451 24.7825 13.7219 24.9205C13.8815 25.0087 13.9946 25.0021 14.1712 24.9826C14.4177 24.8026 14.4504 24.5585 14.5095 24.2578C14.5215 24.1923 14.5334 24.1269 14.5457 24.0594C14.5592 23.9897 14.5726 23.9199 14.5864 23.8481C14.6236 23.6542 14.66 23.4602 14.6961 23.2661C14.7355 23.0559 14.7758 22.8458 14.816 22.6358C14.8859 22.27 14.9551 21.9041 15.024 21.5381C15.1334 20.9568 15.244 20.3757 15.3548 19.7947C15.393 19.5941 15.4312 19.3936 15.4695 19.193C15.4838 19.1175 15.4838 19.1175 15.4985 19.0405C15.5679 18.6764 15.6371 18.3122 15.7063 17.948C16.0065 16.368 16.3107 14.7889 16.6168 13.2103C16.6391 13.0956 16.6613 12.9809 16.6836 12.8662C16.8467 12.0251 17.0099 11.184 17.1731 10.343C17.2976 9.70194 17.422 9.06087 17.5461 8.41974C17.6024 8.12923 17.6588 7.83875 17.7152 7.54828C17.7495 7.37199 17.7836 7.19567 17.8178 7.01935C17.841 6.89941 17.8643 6.7795 17.8877 6.65959C17.9013 6.58905 17.915 6.51852 17.929 6.44584C17.9409 6.38455 17.9528 6.32326 17.965 6.26011C17.9937 6.11945 17.9937 6.11945 17.9901 5.99104C15.3584 5.99104 12.7268 5.99104 10.0153 5.99104ZM18.8887 5.99104C18.3542 8.76121 18.3542 8.76121 17.8199 11.5314C17.7441 11.9239 17.6684 12.3165 17.5926 12.709C17.5776 12.7869 17.5776 12.7869 17.5623 12.8664C17.2722 14.3693 16.9807 15.8718 16.6876 17.374C16.6334 17.6519 16.5792 17.9298 16.525 18.2077C16.5074 18.2981 16.4898 18.3884 16.4722 18.4787C16.4463 18.6119 16.4203 18.7451 16.3944 18.8783C16.2938 19.3946 16.1929 19.9108 16.0917 20.4269C16.0213 20.7857 15.9513 21.1446 15.8815 21.5035C15.8529 21.6499 15.8242 21.7963 15.7954 21.9427C15.7564 22.1405 15.7179 22.3385 15.6795 22.5364C15.668 22.5945 15.6564 22.6526 15.6445 22.7124C15.6344 22.7649 15.6243 22.8174 15.614 22.8715C15.6051 22.917 15.5962 22.9624 15.587 23.0093C15.5652 23.1269 15.5652 23.1269 15.6314 23.2448C16.1456 22.4898 16.6564 21.7322 17.1627 20.9707C17.326 20.7252 17.4896 20.48 17.6532 20.2347C17.7018 20.1618 17.7018 20.1618 17.7514 20.0874C17.9157 19.8409 18.0802 19.5944 18.2448 19.3481C18.5672 18.8658 18.8878 18.3824 19.2046 17.8957C19.4589 17.5052 19.7171 17.1185 19.9791 16.7344C20.297 16.268 20.6098 15.7974 20.9227 15.3269C21.087 15.0801 21.2515 14.8335 21.416 14.5869C21.4815 14.4886 21.547 14.3903 21.6125 14.2921C22.0057 13.7025 22.0057 13.7025 22.1039 13.5551C22.1694 13.4568 22.2349 13.3586 22.3004 13.2604C22.4647 13.0138 22.6292 12.7674 22.7939 12.5211C23.1162 12.0388 23.4369 11.5554 23.7537 11.0686C24.0079 10.6782 24.2661 10.2915 24.5281 9.9074C24.8459 9.44117 25.1585 8.97071 25.4713 8.50041C25.5716 8.34993 25.6721 8.19972 25.7728 8.04957C26.1 7.56132 26.4251 7.0715 26.7442 6.57677C26.7733 6.53204 26.8025 6.4873 26.8324 6.44122C26.9802 6.23614 26.9802 6.23614 27.0321 5.99104C24.3448 5.99104 21.6575 5.99104 18.8887 5.99104Z" fill="black" fill-opacity="0.3"/>
</svg>
