<svg width="30" height="29" viewBox="0 0 30 29" fill="none" xmlns="http://www.w3.org/2000/svg">
<path d="M16.7193 0.570067C17.1048 0.869611 17.3409 1.20244 17.5521 1.64179C17.5934 1.72624 17.6347 1.81068 17.676 1.89512C17.7075 1.95979 17.7075 1.95979 17.7396 2.02576C17.8386 2.22859 17.9396 2.43042 18.0405 2.63232C18.0813 2.7142 18.1221 2.79609 18.1629 2.87799C18.1836 2.91955 18.2044 2.96111 18.2257 3.00393C18.3628 3.27919 18.4999 3.55449 18.637 3.8298C18.7559 4.06874 18.8749 4.30767 18.994 4.54654C19.1335 4.82619 19.2727 5.10592 19.4119 5.38568C19.4454 5.45293 19.4454 5.45293 19.4796 5.52153C19.7544 6.07388 20.0275 6.62674 20.2796 7.19007C20.442 7.54636 20.5803 7.78201 20.9499 7.93363C21.2033 8.01645 21.4659 8.04666 21.7291 8.08307C21.7936 8.09247 21.8581 8.10186 21.9246 8.11154C22.0642 8.13181 22.2039 8.15182 22.3436 8.17159C22.5651 8.20298 22.7866 8.23509 23.0081 8.2674C23.5582 8.34752 24.1086 8.42648 24.659 8.50531C25.124 8.57194 25.589 8.63912 26.0539 8.707C26.2712 8.73851 26.4885 8.76926 26.7059 8.79998C26.8405 8.81956 26.9751 8.83918 27.1097 8.85884C27.1694 8.86707 27.2291 8.87529 27.2906 8.88376C28.1574 9.01282 28.8934 9.31878 29.4624 10.0123C29.9534 10.7523 30.0945 11.5802 29.9409 12.4525C29.7502 13.2192 29.2238 13.7347 28.682 14.2728C28.593 14.3612 28.5045 14.4501 28.4161 14.539C28.1794 14.7759 27.9429 15.0088 27.6902 15.2283C27.4532 15.4353 27.2312 15.6542 27.0108 15.8788C26.971 15.919 26.9312 15.9592 26.8903 16.0006C26.7646 16.1277 26.6392 16.2549 26.5138 16.3822C26.3483 16.5502 26.1826 16.718 26.0168 16.8856C25.9613 16.9422 25.9613 16.9422 25.9046 17C25.6831 17.2239 25.4547 17.4362 25.2164 17.642C25.0521 17.7856 24.8963 17.9369 24.7416 18.0908C24.7117 18.1197 24.6818 18.1485 24.651 18.1782C24.4388 18.3894 24.2511 18.5945 24.2238 18.9049C24.223 19.2588 24.2679 19.594 24.3293 19.942C24.3395 20.0016 24.3497 20.0612 24.3602 20.1227C24.3936 20.3183 24.4277 20.5138 24.4618 20.7094C24.4853 20.846 24.5088 20.9827 24.5322 21.1193C24.5938 21.4782 24.6559 21.837 24.7181 22.1957C24.7936 22.6315 24.8685 23.0674 24.9435 23.5033C25.0018 23.8425 25.0602 24.1816 25.119 24.5206C25.1352 24.6143 25.1352 24.6143 25.1517 24.7098C25.1717 24.8258 25.1918 24.9418 25.212 25.0578C25.3809 26.0359 25.4278 26.9081 24.8768 27.7877C24.439 28.3975 23.8017 28.821 23.0644 28.9636C22.8888 28.9824 22.7147 28.99 22.5382 28.993C22.4758 28.9946 22.4758 28.9946 22.4122 28.9963C21.7107 28.9881 21.0924 28.6329 20.4883 28.3095C20.4127 28.2696 20.3372 28.2297 20.2616 28.1899C20.1127 28.1113 19.964 28.0324 19.8155 27.9533C19.649 27.8647 19.4823 27.7766 19.3153 27.689C18.8498 27.4445 18.3867 27.1955 17.9241 26.9454C17.6793 26.8131 17.4341 26.6816 17.1888 26.5501C16.9719 26.4336 16.7557 26.3157 16.5401 26.1967C16.3985 26.1189 16.2563 26.0421 16.114 25.9654C16.0149 25.9116 15.9165 25.8566 15.818 25.8015C15.4434 25.6011 15.1289 25.447 14.7039 25.5537C14.3846 25.6837 14.0853 25.8438 13.7831 26.0093C13.696 26.0558 13.6089 26.1022 13.5218 26.1485C13.2718 26.2818 13.023 26.4171 12.7746 26.5531C12.7151 26.5857 12.6556 26.6182 12.5944 26.6517C12.3962 26.7605 12.1982 26.8695 12.0006 26.9794C11.4675 27.2741 10.9261 27.5527 10.3848 27.8318C10.3392 27.8554 10.2935 27.8789 10.2465 27.9032C9.98258 28.0393 9.71835 28.1748 9.45387 28.3098C9.32412 28.3762 9.19465 28.4431 9.06519 28.5101C8.98239 28.5526 8.89959 28.595 8.81677 28.6375C8.77967 28.6568 8.74257 28.6762 8.70434 28.6961C8.04728 29.0307 7.25909 29.0887 6.55171 28.8717C5.80517 28.5748 5.22131 28.0975 4.88364 27.3565C4.60034 26.6205 4.6123 25.9502 4.74992 25.1836C4.76076 25.1207 4.77159 25.0578 4.78276 24.993C4.80616 24.8576 4.8298 24.7222 4.85368 24.5869C4.8915 24.3724 4.92867 24.1578 4.96566 23.9432C5.0443 23.4878 5.1238 23.0326 5.20337 22.5774C5.29562 22.0492 5.38747 21.5209 5.47865 20.9925C5.5152 20.7816 5.5523 20.5709 5.58942 20.3601C5.61191 20.2303 5.63438 20.1005 5.65681 19.9706C5.6672 19.9125 5.67759 19.8544 5.68829 19.7946C5.81304 19.084 5.81304 19.084 5.56001 18.4381C5.38982 18.2275 5.20328 18.0371 5.00971 17.8483C4.97033 17.809 4.93095 17.7697 4.89038 17.7292C4.70182 17.5425 4.50986 17.3628 4.30957 17.1889C4.07102 16.9798 3.84702 16.7592 3.62482 16.5329C3.58506 16.4927 3.54531 16.4525 3.50435 16.411C3.33646 16.2413 3.16892 16.0711 3.00135 15.901C2.87799 15.7759 2.75446 15.651 2.63092 15.5261C2.59388 15.4883 2.55683 15.4506 2.51867 15.4117C2.29747 15.1881 2.06897 14.9771 1.83158 14.771C1.58681 14.5563 1.35934 14.3232 1.1291 14.093C1.07789 14.0427 1.02668 13.9924 0.973919 13.9406C0.328154 13.2952 0.00877841 12.6605 0 11.734C0.00466727 11.285 0.0523023 10.9058 0.263092 10.5031C0.287208 10.4534 0.311325 10.4036 0.336173 10.3524C0.654428 9.75599 1.15852 9.3341 1.78318 9.09207C2.43477 8.89757 3.11844 8.82472 3.78948 8.73003C3.99872 8.70045 4.20788 8.67037 4.41703 8.64015C5.01114 8.55435 5.60532 8.46918 6.19966 8.38498C6.56455 8.33325 6.92932 8.28072 7.29403 8.2277C7.43247 8.20773 7.57095 8.18806 7.70947 8.16871C7.90305 8.14165 8.09646 8.11358 8.28986 8.08528C8.37493 8.07377 8.37493 8.07377 8.46172 8.06203C8.83929 8.00533 9.21447 7.92183 9.48559 7.63015C9.50748 7.58906 9.52937 7.54796 9.55192 7.50562C9.57996 7.45359 9.60801 7.40157 9.6369 7.34796C9.66908 7.28328 9.70125 7.2186 9.73439 7.15195C9.75427 7.11228 9.77414 7.07261 9.79461 7.03174C9.9438 6.73291 10.0893 6.43232 10.2338 6.13121C10.3747 5.83784 10.5166 5.54493 10.6584 5.25202C10.6878 5.19128 10.7172 5.13054 10.7475 5.06796C11.0787 4.38479 11.4165 3.70499 11.7551 3.02553C11.7838 2.96799 11.8124 2.91045 11.842 2.85117C11.9932 2.54758 12.1445 2.24399 12.2963 1.94063C12.3456 1.84149 12.3946 1.74218 12.4433 1.64275C12.4691 1.59034 12.4948 1.53794 12.5214 1.48395C12.5446 1.43639 12.5679 1.38883 12.5918 1.33983C12.915 0.721936 13.5206 0.338121 14.1558 0.100654C15.0568 -0.133157 15.9581 0.0472846 16.7193 0.570067ZM14.1323 2.35185C14.0226 2.5004 13.9466 2.65864 13.8683 2.82573C13.8508 2.86259 13.8332 2.89946 13.8152 2.93744C13.7769 3.01821 13.7387 3.09908 13.7008 3.18005C13.594 3.40768 13.4855 3.63443 13.377 3.86124C13.3414 3.93595 13.3414 3.93595 13.305 4.01217C12.9691 4.71356 12.6209 5.40882 12.274 6.10473C12.2087 6.2358 12.1434 6.36686 12.0781 6.49793C11.9852 6.68441 11.8922 6.87088 11.7992 7.0573C11.6667 7.32261 11.5345 7.58803 11.4036 7.85413C11.3822 7.89762 11.3608 7.9411 11.3387 7.9859C11.3002 8.06401 11.2619 8.14218 11.2238 8.22044C10.8717 8.93458 10.3687 9.41291 9.61746 9.67998C8.93559 9.85141 8.23299 9.93453 7.5378 10.0311C7.3391 10.0588 7.14047 10.0869 6.94185 10.1151C6.37781 10.1952 5.81372 10.2748 5.24947 10.3534C4.90265 10.4017 4.55593 10.4508 4.20928 10.5004C4.0779 10.519 3.94649 10.5374 3.81503 10.5554C3.63129 10.5807 3.4477 10.6069 3.26412 10.6334C3.21054 10.6405 3.15695 10.6476 3.10174 10.655C2.66559 10.7195 2.22944 10.8157 1.95492 11.1865C1.80697 11.4639 1.78973 11.724 1.84164 12.0316C2.03494 12.5264 2.48405 12.8794 2.87694 13.2192C3.11688 13.43 3.34262 13.652 3.56635 13.8799C3.60611 13.9201 3.64586 13.9603 3.68682 14.0017C3.85472 14.1715 4.02226 14.3416 4.18983 14.5117C4.31318 14.6368 4.43671 14.7618 4.56026 14.8867C4.5973 14.9244 4.63434 14.9622 4.6725 15.0011C4.89206 15.223 5.11876 15.4324 5.35435 15.637C5.63106 15.8801 5.89179 16.1406 6.15369 16.3995C6.22385 16.4685 6.29441 16.5371 6.3654 16.6052C7.05958 17.2718 7.56077 17.9822 7.58857 18.9787C7.5927 19.5893 7.47106 20.1851 7.36369 20.7838C7.32542 20.9973 7.2881 21.2109 7.25101 21.4246C7.17221 21.8776 7.09225 22.3304 7.01213 22.7831C6.91901 23.3094 6.82637 23.8358 6.73495 24.3624C6.69826 24.5723 6.6607 24.782 6.6231 24.9917C6.60059 25.1208 6.57812 25.2498 6.5557 25.3789C6.5451 25.4366 6.5345 25.4943 6.52358 25.5538C6.45741 25.942 6.40142 26.3502 6.60584 26.7036C6.64104 26.74 6.67623 26.7765 6.71249 26.814C6.74724 26.8515 6.78198 26.889 6.81778 26.9277C7.05069 27.1299 7.26463 27.1802 7.56743 27.1733C7.96441 27.1018 8.31666 26.8774 8.66741 26.6854C8.75446 26.6389 8.84157 26.5925 8.92873 26.5462C9.17868 26.413 9.42749 26.2777 9.67593 26.1416C9.73539 26.1091 9.79485 26.0765 9.85612 26.043C10.0543 25.9342 10.2523 25.8252 10.4499 25.7154C10.983 25.4207 11.5244 25.142 12.0657 24.8629C12.1113 24.8393 12.157 24.8158 12.204 24.7915C12.468 24.6554 12.7323 24.52 12.9969 24.385C13.126 24.3187 13.2546 24.2517 13.3833 24.1846C13.4655 24.1421 13.5478 24.0997 13.6301 24.0572C13.6667 24.0379 13.7033 24.0185 13.741 23.9986C14.1421 23.7933 14.5277 23.7137 14.978 23.7091C15.0517 23.7074 15.1255 23.7058 15.2015 23.704C15.8881 23.746 16.5025 24.0889 17.0973 24.4072C17.178 24.4498 17.2586 24.4923 17.3393 24.5347C17.8336 24.7955 18.324 25.063 18.8125 25.3344C19.4116 25.6654 20.021 25.9764 20.6297 26.289C20.6714 26.3104 20.7131 26.3319 20.7561 26.354C20.8388 26.3965 20.9215 26.4389 21.0043 26.4813C21.2094 26.5868 21.413 26.6942 21.6149 26.8059C21.6544 26.8276 21.6938 26.8494 21.7345 26.8718C21.8087 26.9128 21.8826 26.9542 21.9562 26.9961C22.2488 27.1577 22.5037 27.2238 22.8305 27.141C23.1113 27.0025 23.3016 26.8151 23.4736 26.5531C23.575 26.1564 23.5093 25.7743 23.4368 25.3789C23.4259 25.3166 23.4151 25.2543 23.404 25.1901C23.3805 25.0555 23.3567 24.9209 23.3326 24.7865C23.2943 24.5729 23.257 24.3592 23.2198 24.1455C23.1275 23.6145 23.0335 23.0837 22.9396 22.553C22.8603 22.1044 22.7816 21.6558 22.7037 21.2069C22.6671 20.9977 22.6296 20.7886 22.5921 20.5795C22.3965 19.4682 22.2568 18.4525 22.8747 17.4418C23.1818 17.0258 23.567 16.674 23.934 16.3124C24.0187 16.228 24.1032 16.1435 24.1878 16.059C24.2699 15.9772 24.352 15.8955 24.4342 15.8138C24.4716 15.7766 24.509 15.7394 24.5475 15.7011C24.7308 15.5207 24.9168 15.346 25.1109 15.1774C25.3456 14.973 25.5649 14.7561 25.783 14.534C25.8426 14.4737 25.8426 14.4737 25.9035 14.4121C26.0291 14.2851 26.1545 14.1578 26.2799 14.0306C26.4454 13.8626 26.6111 13.6948 26.7769 13.5272C26.8139 13.4894 26.851 13.4517 26.8891 13.4128C27.1124 13.1871 27.3427 12.9735 27.5832 12.7664C27.7026 12.6611 27.8095 12.5493 27.9133 12.4285C27.9464 12.3906 27.9795 12.3527 28.0136 12.3137C28.2032 12.0595 28.1887 11.7464 28.1508 11.4437C28.0708 11.2133 27.9576 11.0349 27.7484 10.905C27.4008 10.7494 27.0693 10.6785 26.6933 10.628C26.6317 10.6191 26.57 10.6101 26.5064 10.6009C26.304 10.5718 26.1014 10.5438 25.8988 10.5157C25.757 10.4954 25.6153 10.4751 25.4735 10.4547C25.101 10.4012 24.7285 10.3487 24.3558 10.2963C23.7601 10.2125 23.1646 10.1277 22.5691 10.0424C22.362 10.0129 22.1549 9.98387 21.9477 9.95494C21.8194 9.93671 21.6911 9.91847 21.5628 9.90021C21.506 9.89242 21.4493 9.88462 21.3907 9.8766C20.4655 9.74343 19.7309 9.51355 19.0888 8.79811C18.708 8.26389 18.4536 7.63357 18.1733 7.04287C17.7483 6.14805 17.3033 5.26312 16.8603 4.37721C16.7993 4.25522 16.7384 4.13321 16.6775 4.0112C16.6482 3.95251 16.6189 3.89382 16.5886 3.83335C16.4559 3.5667 16.3253 3.29954 16.2016 3.02851C16.1806 2.98249 16.1596 2.93646 16.1379 2.88904C16.1 2.80529 16.0626 2.72131 16.0259 2.63706C15.8638 2.27719 15.6385 2.03667 15.2886 1.86072C14.7541 1.80176 14.4761 1.92969 14.1323 2.35185Z" fill="black" fill-opacity="0.3"/>
</svg>
