<svg width="42" height="42" viewBox="0 0 42 42" fill="none" xmlns="http://www.w3.org/2000/svg">
<path d="M0 11.8125C0 5.28864 5.28864 0 11.8125 0H30.1875C36.7114 0 42 5.28864 42 11.8125V30.1875C42 36.7114 36.7114 42 30.1875 42H11.8125C5.28864 42 0 36.7114 0 30.1875V11.8125Z" fill="url(#paint0_linear_592_204)"/>
<path d="M29.0947 26.4879L35.8013 13.2894C36.46 11.993 35.6254 10.4371 34.1811 10.2688C33.3356 10.1702 32.5203 10.6172 32.1487 11.383L25.1395 25.8269C25.0894 25.9301 25.0807 26.0485 25.1151 26.1578C25.6947 28.0011 28.2194 28.2105 29.0947 26.4879Z" fill="white"/>
<path d="M13.1838 26.5387L6.20907 13.4267C5.5253 12.1412 6.33476 10.5683 7.77821 10.3776C8.6178 10.2667 9.43624 10.6966 9.82137 11.4509L17.034 25.5764C17.0737 25.654 17.0889 25.7419 17.0778 25.8284C16.8194 27.8362 14.1345 28.326 13.1838 26.5387Z" fill="white"/>
<path d="M20.4787 7.56057C20.713 6.83212 21.7437 6.83213 21.978 7.56057L23.4768 12.2196H28.3487C29.1097 12.2196 29.4281 13.1918 28.8146 13.642L24.8664 16.5392L28.8231 25.8119C29.7067 27.8827 26.8071 29.4208 25.5881 27.5279L21.2025 20.7177L16.6956 27.4958C15.4478 29.3725 12.569 27.7872 13.4876 25.7294L17.5902 16.5392L13.6421 13.642C13.0285 13.1918 13.347 12.2196 14.1079 12.2196H18.9799L20.4787 7.56057Z" fill="url(#paint1_linear_592_204)"/>
<path d="M31.1601 35.9018C30.9809 35.9018 30.836 35.8464 30.7253 35.7357C30.6198 35.625 30.5671 35.4827 30.5671 35.3088C30.5671 35.1401 30.6198 35.0031 30.7253 34.8977C30.836 34.787 30.9809 34.7316 31.1601 34.7316C31.3446 34.7316 31.4869 34.787 31.587 34.8977C31.6925 35.0031 31.7452 35.1401 31.7452 35.3088C31.7452 35.4827 31.6925 35.625 31.587 35.7357C31.4869 35.8464 31.3446 35.9018 31.1601 35.9018Z" fill="white"/>
<path d="M29.2437 35.9413C28.9011 35.9413 28.6138 35.8833 28.3819 35.7673C28.1553 35.6514 27.9866 35.4827 27.8759 35.2614C27.7652 35.0347 27.7099 34.7554 27.7099 34.4233V32.7393H27.2988C27.1723 32.7393 27.0747 32.7076 27.0062 32.6444C26.9377 32.5759 26.9034 32.4836 26.9034 32.3677C26.9034 32.2464 26.9377 32.1542 27.0062 32.091C27.0747 32.0277 27.1723 31.9961 27.2988 31.9961H27.7099V31.2766C27.7099 31.1132 27.752 30.9894 27.8364 30.905C27.926 30.8207 28.0498 30.7785 28.208 30.7785C28.3661 30.7785 28.4873 30.8207 28.5717 30.905C28.656 30.9894 28.6982 31.1132 28.6982 31.2766V31.9961H29.5362C29.6627 31.9961 29.7602 32.0277 29.8287 32.091C29.8973 32.1542 29.9315 32.2464 29.9315 32.3677C29.9315 32.4836 29.8973 32.5759 29.8287 32.6444C29.7602 32.7076 29.6627 32.7393 29.5362 32.7393H28.6982V34.3679C28.6982 34.6209 28.7535 34.8107 28.8642 34.9372C28.9749 35.0637 29.1541 35.1269 29.4018 35.1269C29.4914 35.1269 29.5705 35.119 29.639 35.1032C29.7075 35.0874 29.7681 35.0769 29.8208 35.0716C29.8841 35.0663 29.9368 35.0874 29.979 35.1349C30.0211 35.177 30.0422 35.2666 30.0422 35.4037C30.0422 35.5091 30.0238 35.604 29.9869 35.6883C29.9552 35.7673 29.8946 35.8227 29.805 35.8543C29.7365 35.8754 29.6469 35.8938 29.5362 35.9097C29.4255 35.9307 29.328 35.9413 29.2437 35.9413Z" fill="white"/>
<path d="M25.8012 35.9413C25.4586 35.9413 25.1713 35.8833 24.9394 35.7673C24.7128 35.6514 24.5441 35.4827 24.4334 35.2614C24.3227 35.0347 24.2674 34.7554 24.2674 34.4233V32.7393H23.8562C23.7297 32.7393 23.6322 32.7076 23.5637 32.6444C23.4952 32.5759 23.4609 32.4836 23.4609 32.3677C23.4609 32.2464 23.4952 32.1542 23.5637 32.091C23.6322 32.0277 23.7297 31.9961 23.8562 31.9961H24.2674V31.2766C24.2674 31.1132 24.3095 30.9894 24.3939 30.905C24.4835 30.8207 24.6073 30.7785 24.7655 30.7785C24.9236 30.7785 25.0448 30.8207 25.1292 30.905C25.2135 30.9894 25.2557 31.1132 25.2557 31.2766V31.9961H26.0937C26.2202 31.9961 26.3177 32.0277 26.3862 32.091C26.4548 32.1542 26.489 32.2464 26.489 32.3677C26.489 32.4836 26.4548 32.5759 26.3862 32.6444C26.3177 32.7076 26.2202 32.7393 26.0937 32.7393H25.2557V34.3679C25.2557 34.6209 25.311 34.8107 25.4217 34.9372C25.5324 35.0637 25.7116 35.1269 25.9593 35.1269C26.0489 35.1269 26.128 35.119 26.1965 35.1032C26.265 35.0874 26.3256 35.0769 26.3783 35.0716C26.4416 35.0663 26.4943 35.0874 26.5365 35.1349C26.5786 35.177 26.5997 35.2666 26.5997 35.4037C26.5997 35.5091 26.5813 35.604 26.5444 35.6883C26.5127 35.7673 26.4521 35.8227 26.3625 35.8543C26.294 35.8754 26.2044 35.8938 26.0937 35.9097C25.983 35.9307 25.8855 35.9413 25.8012 35.9413Z" fill="white"/>
<path d="M18.3733 35.9254C18.2468 35.9254 18.144 35.8964 18.0649 35.8384C17.9911 35.7804 17.9463 35.704 17.9305 35.6091C17.9147 35.509 17.9332 35.3983 17.9859 35.2771L20.0731 30.6519C20.1416 30.4991 20.2233 30.391 20.3182 30.3278C20.4183 30.2593 20.5317 30.225 20.6582 30.225C20.7794 30.225 20.8875 30.2593 20.9823 30.3278C21.0825 30.391 21.1668 30.4991 21.2353 30.6519L23.3305 35.2771C23.3885 35.3983 23.4095 35.509 23.3937 35.6091C23.3779 35.7093 23.3331 35.7884 23.2593 35.8463C23.1855 35.899 23.088 35.9254 22.9668 35.9254C22.8192 35.9254 22.7032 35.8911 22.6189 35.8226C22.5399 35.7488 22.4687 35.6381 22.4054 35.4906L21.8915 34.2967L22.3185 34.5734H18.9821L19.409 34.2967L18.903 35.4906C18.8345 35.6434 18.7633 35.7541 18.6895 35.8226C18.6157 35.8911 18.5103 35.9254 18.3733 35.9254ZM20.6424 31.3872L19.5355 34.02L19.3299 33.767H21.9706L21.7729 34.02L20.6582 31.3872H20.6424Z" fill="white"/>
<path d="M15.4504 34.1736C15.3382 34.1736 15.2439 34.1379 15.1675 34.0666C15.0961 33.9901 15.0604 33.8984 15.0604 33.7913C15.0604 33.6792 15.0961 33.5874 15.1675 33.5161C15.2439 33.4447 15.3382 33.409 15.4504 33.409H17.079C17.1861 33.409 17.2753 33.4447 17.3466 33.5161C17.4231 33.5874 17.4613 33.6792 17.4613 33.7913C17.4613 33.8984 17.4231 33.9901 17.3466 34.0666C17.2753 34.1379 17.1861 34.1736 17.079 34.1736H15.4504Z" fill="white"/>
<path d="M12.6992 35.9169C12.2761 35.9169 11.9116 35.8379 11.6058 35.6799C11.2999 35.5218 11.0629 35.2976 10.8947 35.007C10.7316 34.7164 10.65 34.3724 10.65 33.9748C10.65 33.5874 10.729 33.2484 10.8871 32.9578C11.0502 32.6673 11.2719 32.4404 11.5523 32.2773C11.8377 32.1091 12.1614 32.025 12.5233 32.025C12.7884 32.025 13.0254 32.0683 13.2344 32.155C13.4485 32.2416 13.6295 32.3665 13.7773 32.5296C13.9302 32.6928 14.0449 32.8916 14.1214 33.126C14.2029 33.3554 14.2437 33.6154 14.2437 33.906C14.2437 33.9977 14.2106 34.0691 14.1443 34.12C14.0832 34.1659 13.9939 34.1889 13.8767 34.1889H11.4223V33.6383H13.5709L13.4485 33.753C13.4485 33.5185 13.4128 33.3223 13.3415 33.1643C13.2752 33.0063 13.1758 32.8865 13.0433 32.8049C12.9158 32.7182 12.7553 32.6749 12.5616 32.6749C12.3475 32.6749 12.164 32.7259 12.011 32.8278C11.8632 32.9247 11.7485 33.0649 11.667 33.2484C11.5905 33.4268 11.5523 33.6409 11.5523 33.8907V33.9442C11.5523 34.3622 11.6491 34.6757 11.8428 34.8847C12.0416 35.0886 12.3322 35.1905 12.7145 35.1905C12.847 35.1905 12.9948 35.1752 13.158 35.1446C13.3262 35.1089 13.4842 35.0503 13.632 34.9688C13.7391 34.9076 13.8334 34.8821 13.9149 34.8923C13.9965 34.8974 14.0602 34.9254 14.1061 34.9764C14.1571 35.0274 14.1877 35.0911 14.1978 35.1676C14.208 35.2389 14.1927 35.3128 14.152 35.3893C14.1163 35.4658 14.0526 35.532 13.9608 35.5881C13.7824 35.7003 13.576 35.7844 13.3415 35.8404C13.1121 35.8914 12.898 35.9169 12.6992 35.9169Z" fill="white"/>
<defs>
<linearGradient id="paint0_linear_592_204" x1="21" y1="0" x2="21" y2="42" gradientUnits="userSpaceOnUse">
<stop stop-color="#E60079"/>
<stop offset="1" stop-color="#160B47"/>
</linearGradient>
<linearGradient id="paint1_linear_592_204" x1="21.2238" y1="7.01424" x2="21.2238" y2="28.3861" gradientUnits="userSpaceOnUse">
<stop stop-color="#FFDF00"/>
<stop offset="1" stop-color="#FF9E14"/>
</linearGradient>
</defs>
</svg>
