<svg width="64" height="64" viewBox="0 0 64 64" fill="none" xmlns="http://www.w3.org/2000/svg">
<path fill-rule="evenodd" clip-rule="evenodd" d="M32 23.0004L49 23C49 32.3888 41.3888 40 32 40C22.6112 40 15 32.3888 15 23L32 23.0004ZM32 23.0004L15 23C15 13.6112 22.6112 6 32 6C41.3888 6 49 13.6112 49 23L32 23.0004ZM54 23.0004C54 20.1113 53.431 17.2505 52.3253 14.5814C51.2197 11.9122 49.5992 9.48694 47.5564 7.44405C45.5135 5.40116 43.0882 3.78065 40.419 2.67505C37.7499 1.56944 34.8891 1.0004 32 1.0004C29.1109 1.0004 26.2501 1.56945 23.581 2.67505C20.9118 3.78066 18.4865 5.40116 16.4436 7.44405C14.4008 9.48694 12.7803 11.9122 11.6746 14.5814C10.569 17.2505 10 20.1113 10 23.0004C10 32.5079 20.1456 47.2447 28.3348 59.1398L28.3368 59.1426C28.7551 59.7503 29.1683 60.3505 29.5748 60.9422C30.7574 62.6637 33.297 62.7024 34.5126 61.004C43.2329 48.8198 54 33.0113 54 23.0004Z" fill="#EEA441"/>
<path fill-rule="evenodd" clip-rule="evenodd" d="M32.2331 12.9437C29.8876 12.9437 27.9862 14.8451 27.9862 17.1906C27.9862 19.5361 29.8876 21.4375 32.2331 21.4375C34.5786 21.4375 36.48 19.5361 36.48 17.1906C36.48 14.8451 34.5786 12.9437 32.2331 12.9437ZM27.0425 17.1906C27.0425 14.3239 29.3664 12 32.2331 12C35.0998 12 37.4237 14.3239 37.4237 17.1906C37.4237 20.0573 35.0998 22.3812 32.2331 22.3812C29.3664 22.3812 27.0425 20.0573 27.0425 17.1906Z" fill="#EEA441"/>
<path d="M27.9862 17.1906C27.9862 14.8451 29.8876 12.9437 32.2331 12.9437C34.5786 12.9437 36.48 14.8451 36.48 17.1906C36.48 19.5361 34.5786 21.4375 32.2331 21.4375C29.8876 21.4375 27.9862 19.5361 27.9862 17.1906Z" fill="#EEA441"/>
<path fill-rule="evenodd" clip-rule="evenodd" d="M25.6637 26.3384C27.4635 24.7036 29.8077 23.7979 32.2392 23.7979C34.6706 23.7979 37.0149 24.7036 38.8147 26.3384L38.818 26.3414C40.225 27.6439 41.1563 29.3793 41.4641 31.2717L41.466 31.2832L41.4673 31.2947C41.492 31.5143 41.469 31.7366 41.3998 31.9465C41.3306 32.1564 41.2168 32.3489 41.0663 32.5107C40.9158 32.6725 40.7321 32.7999 40.5278 32.8841C40.3266 32.9671 40.1102 33.0062 39.8928 32.999H24.5742C24.3569 33.0065 24.1403 32.9673 23.9393 32.8841C23.735 32.7994 23.5516 32.6712 23.4019 32.5085C23.2521 32.3457 23.1397 32.1523 23.0723 31.9416C23.0049 31.731 22.9843 31.5082 23.0118 31.2888L23.0129 31.2802L23.0143 31.2717C23.3221 29.3793 24.2534 27.644 25.6604 26.3415L25.6637 26.3384ZM26.2999 27.0355C25.0506 28.1927 24.2228 29.7333 23.9474 31.4136C23.9383 31.4946 23.9464 31.5766 23.9712 31.6542C23.9968 31.7342 24.0395 31.8077 24.0964 31.8695C24.1533 31.9313 24.2229 31.98 24.3005 32.0122C24.3782 32.0443 24.4618 32.0592 24.5458 32.0557L24.5556 32.0553H39.9106L39.9199 32.0557C40.0049 32.059 40.0895 32.044 40.1681 32.0116C40.2467 31.9792 40.3173 31.9302 40.3752 31.868C40.4331 31.8057 40.4769 31.7317 40.5035 31.651C40.529 31.5735 40.5382 31.4915 40.5305 31.4103C40.2545 29.7313 39.4269 28.1919 38.1785 27.0355C36.5526 25.5594 34.4353 24.7416 32.2392 24.7416C30.0431 24.7416 27.9258 25.5594 26.2999 27.0355Z" fill="#EEA441"/>
<path d="M23.9474 31.4136C24.2228 29.7333 25.0506 28.1927 26.2999 27.0355C27.9258 25.5594 30.0431 24.7416 32.2392 24.7416C34.4353 24.7416 36.5526 25.5594 38.1785 27.0355C39.4269 28.1919 40.2545 29.7313 40.5305 31.4103C40.5382 31.4915 40.529 31.5735 40.5035 31.651C40.4769 31.7317 40.4331 31.8057 40.3752 31.868C40.3173 31.9302 40.2467 31.9792 40.1681 32.0116C40.0895 32.044 40.0049 32.059 39.9199 32.0557L39.9106 32.0553H24.5556L24.5458 32.0557C24.4618 32.0592 24.3782 32.0443 24.3005 32.0122C24.2229 31.98 24.1533 31.9313 24.0964 31.8695C24.0395 31.8077 23.9968 31.7342 23.9712 31.6542C23.9464 31.5766 23.9383 31.4946 23.9474 31.4136Z" fill="#EEA441"/>
</svg>
