<svg width="20" height="20" viewBox="0 0 20 20" fill="none" xmlns="http://www.w3.org/2000/svg">
<g clip-path="url(#clip0_310_59)">
<path fill-rule="evenodd" clip-rule="evenodd" d="M8.1583 8.00044L12.083 4.07554C14.2506 6.24315 14.2506 9.75755 12.083 11.9252C9.9154 14.0928 6.40101 14.0928 4.23339 11.9252L8.1583 8.00044ZM8.1583 8.00044L4.23339 11.9252C2.06578 9.75755 2.06578 6.24315 4.23339 4.07554C6.40101 1.90792 9.9154 1.90792 12.083 4.07554L8.1583 8.00044ZM13.2375 2.92127C12.5705 2.25426 11.7786 1.72517 10.9071 1.36419C10.0356 1.0032 9.10159 0.817409 8.1583 0.817409C7.21501 0.817409 6.28095 1.0032 5.40947 1.36418C4.53798 1.72517 3.74613 2.25427 3.07913 2.92127C2.41212 3.58828 1.88302 4.38013 1.52204 5.25162C1.16106 6.1231 0.975263 7.05715 0.975263 8.00044C0.975264 8.94373 1.16106 9.87778 1.52204 10.7493C1.88302 11.6208 2.41212 12.4126 3.07913 13.0796C5.27414 15.2746 11.0188 16.3346 15.6557 17.1902L15.6568 17.1904C15.8936 17.2341 16.1276 17.2773 16.3581 17.32C17.0286 17.4444 17.6238 16.8671 17.5123 16.1943C16.7126 11.3681 15.5487 5.23249 13.2375 2.92127Z" fill="#FFB34E"/>
<path fill-rule="evenodd" clip-rule="evenodd" d="M5.89135 5.62304C5.34984 6.16454 5.34984 7.04249 5.89135 7.584C6.43285 8.1255 7.3108 8.1255 7.85231 7.584C8.39381 7.04249 8.39381 6.16454 7.85231 5.62304C7.3108 5.08153 6.43285 5.08153 5.89135 5.62304ZM5.67346 7.80188C5.01162 7.14004 5.01162 6.06699 5.67346 5.40515C6.3353 4.74331 7.40835 4.74331 8.07019 5.40515C8.73203 6.06699 8.73203 7.14004 8.07019 7.80188C7.40835 8.46372 6.3353 8.46372 5.67346 7.80188Z" fill="#FFB34E"/>
<path d="M5.89135 7.584C5.34984 7.04249 5.34984 6.16454 5.89135 5.62304C6.43285 5.08153 7.3108 5.08153 7.85231 5.62304C8.39381 6.16454 8.39381 7.04249 7.85231 7.584C7.3108 8.1255 6.43285 8.1255 5.89135 7.584Z" fill="#FFB34E"/>
<path fill-rule="evenodd" clip-rule="evenodd" d="M7.46715 10.2333C7.50523 9.44034 7.83734 8.69 8.39869 8.12865C8.96004 7.5673 9.71038 7.23519 10.5033 7.19711L10.5048 7.19704C11.1303 7.17292 11.746 7.35853 12.254 7.72439L12.257 7.7266L12.26 7.72896C12.3164 7.77395 12.3624 7.8306 12.3949 7.89503C12.4274 7.95947 12.4455 8.03016 12.4482 8.10227C12.4508 8.17437 12.4378 8.24619 12.4101 8.31281C12.3828 8.3784 12.3418 8.43742 12.29 8.48595L8.75336 12.0226C8.70491 12.0745 8.64587 12.1154 8.58024 12.1426C8.51352 12.1702 8.44159 12.183 8.36944 12.18C8.29729 12.177 8.22667 12.1583 8.16249 12.1252C8.0983 12.0921 8.0421 12.0454 7.99779 11.9884L7.99607 11.9862L7.99443 11.9839C7.62858 11.476 7.44296 10.8603 7.46708 10.2348L7.46715 10.2333ZM7.77496 10.2474C7.7537 10.8029 7.91827 11.3497 8.24261 11.8013C8.2592 11.8221 8.28 11.8391 8.30366 11.8513C8.32804 11.8639 8.35486 11.871 8.38227 11.8721C8.40967 11.8733 8.437 11.8684 8.46234 11.8579C8.48768 11.8474 8.51043 11.8315 8.529 11.8113L8.53117 11.809L12.0762 8.26395L12.0785 8.26188C12.0988 8.24305 12.1149 8.22003 12.1256 8.19441C12.1362 8.16879 12.1412 8.14117 12.1402 8.11343C12.1392 8.0857 12.1322 8.05851 12.1197 8.03373C12.1077 8.00993 12.0909 7.98889 12.0704 7.97193C11.619 7.64802 11.0726 7.48367 10.5174 7.50492C9.80122 7.5395 9.12358 7.83953 8.61658 8.34654C8.10957 8.85355 7.80954 9.53118 7.77496 10.2474Z" fill="#FFB34E"/>
<path d="M8.24261 11.8013C7.91827 11.3497 7.7537 10.8029 7.77496 10.2474C7.80954 9.53118 8.10957 8.85355 8.61658 8.34654C9.12358 7.83953 9.80122 7.5395 10.5174 7.50492C11.0726 7.48367 11.619 7.64802 12.0704 7.97193C12.0909 7.98889 12.1077 8.00993 12.1197 8.03373C12.1322 8.05851 12.1392 8.0857 12.1402 8.11343C12.1412 8.14117 12.1362 8.16879 12.1256 8.19441C12.1149 8.22003 12.0988 8.24305 12.0785 8.26188L12.0762 8.26395L8.53117 11.809L8.529 11.8113C8.51043 11.8315 8.48768 11.8474 8.46234 11.8579C8.437 11.8684 8.40967 11.8733 8.38227 11.8721C8.35486 11.871 8.32804 11.8639 8.30366 11.8513C8.28 11.8391 8.2592 11.8221 8.24261 11.8013Z" fill="#FFB34E"/>
</g>
<defs>
<clipPath id="clip0_310_59">
<rect width="20" height="20" fill="white"/>
</clipPath>
</defs>
</svg>
