<svg width="44" height="62" viewBox="0 0 44 62" fill="none" xmlns="http://www.w3.org/2000/svg">
<path fill-rule="evenodd" clip-rule="evenodd" d="M22 22.0004L39 22C39 31.3888 31.3888 39 22 39C12.6112 39 5 31.3888 5 22L22 22.0004ZM22 22.0004L5 22C5 12.6112 12.6112 5 22 5C31.3888 5 39 12.6112 39 22L22 22.0004ZM44 22.0004C44 19.1113 43.431 16.2505 42.3253 13.5814C41.2197 10.9122 39.5992 8.48694 37.5564 6.44405C35.5135 4.40116 33.0882 2.78065 30.419 1.67505C27.7499 0.569442 24.8891 0.000400417 22 0.000400543C19.1109 0.000400669 16.2501 0.569449 13.581 1.67505C10.9118 2.78066 8.48654 4.40116 6.44365 6.44405C4.40076 8.48694 2.78025 10.9122 1.67465 13.5814C0.569046 16.2505 -2.52571e-07 19.1113 0 22.0004C0 31.5079 10.1456 46.2447 18.3348 58.1398L18.3368 58.1426C18.7551 58.7503 19.1683 59.3505 19.5748 59.9422C20.7574 61.6637 23.297 61.7024 24.5126 60.004C33.2329 47.8198 44 32.0113 44 22.0004Z" fill="#531166"/>
<path fill-rule="evenodd" clip-rule="evenodd" d="M22.2331 11.9437C19.8876 11.9437 17.9862 13.8451 17.9862 16.1906C17.9862 18.5361 19.8876 20.4375 22.2331 20.4375C24.5786 20.4375 26.48 18.5361 26.48 16.1906C26.48 13.8451 24.5786 11.9437 22.2331 11.9437ZM17.0425 16.1906C17.0425 13.3239 19.3664 11 22.2331 11C25.0998 11 27.4237 13.3239 27.4237 16.1906C27.4237 19.0573 25.0998 21.3812 22.2331 21.3812C19.3664 21.3812 17.0425 19.0573 17.0425 16.1906Z" fill="#531166"/>
<path d="M17.9862 16.1906C17.9862 13.8451 19.8876 11.9437 22.2331 11.9437C24.5786 11.9437 26.48 13.8451 26.48 16.1906C26.48 18.5361 24.5786 20.4375 22.2331 20.4375C19.8876 20.4375 17.9862 18.5361 17.9862 16.1906Z" fill="#531166"/>
<path fill-rule="evenodd" clip-rule="evenodd" d="M15.6637 25.3384C17.4635 23.7036 19.8077 22.7979 22.2392 22.7979C24.6706 22.7979 27.0149 23.7036 28.8147 25.3384L28.818 25.3414C30.225 26.6439 31.1563 28.3793 31.4641 30.2717L31.466 30.2832L31.4673 30.2947C31.492 30.5143 31.469 30.7366 31.3998 30.9465C31.3306 31.1564 31.2168 31.3489 31.0663 31.5107C30.9158 31.6725 30.7321 31.7999 30.5278 31.8841C30.3266 31.9671 30.1102 32.0062 29.8928 31.999H14.5742C14.3569 32.0065 14.1403 31.9673 13.9393 31.8841C13.735 31.7994 13.5516 31.6712 13.4019 31.5085C13.2521 31.3457 13.1397 31.1523 13.0723 30.9416C13.0049 30.731 12.9843 30.5082 13.0118 30.2888L13.0129 30.2802L13.0143 30.2717C13.3221 28.3793 14.2534 26.644 15.6604 25.3415L15.6637 25.3384ZM16.2999 26.0355C15.0506 27.1927 14.2228 28.7333 13.9474 30.4136C13.9383 30.4946 13.9464 30.5766 13.9712 30.6542C13.9968 30.7342 14.0395 30.8077 14.0964 30.8695C14.1533 30.9313 14.2229 30.98 14.3005 31.0122C14.3782 31.0443 14.4618 31.0592 14.5458 31.0557L14.5556 31.0553H29.9106L29.9199 31.0557C30.0049 31.059 30.0895 31.044 30.1681 31.0116C30.2467 30.9792 30.3173 30.9302 30.3752 30.868C30.4331 30.8057 30.4769 30.7317 30.5035 30.651C30.529 30.5735 30.5382 30.4915 30.5305 30.4103C30.2545 28.7313 29.4269 27.1919 28.1785 26.0355C26.5526 24.5594 24.4353 23.7416 22.2392 23.7416C20.0431 23.7416 17.9258 24.5594 16.2999 26.0355Z" fill="#531166"/>
<path d="M13.9474 30.4136C14.2228 28.7333 15.0506 27.1927 16.2999 26.0355C17.9258 24.5594 20.0431 23.7416 22.2392 23.7416C24.4353 23.7416 26.5526 24.5594 28.1785 26.0355C29.4269 27.1919 30.2545 28.7313 30.5305 30.4103C30.5382 30.4915 30.529 30.5735 30.5035 30.651C30.4769 30.7317 30.4331 30.8057 30.3752 30.868C30.3173 30.9302 30.2467 30.9792 30.1681 31.0116C30.0895 31.044 30.0049 31.059 29.9199 31.0557L29.9106 31.0553H14.5556L14.5458 31.0557C14.4618 31.0592 14.3782 31.0443 14.3005 31.0122C14.2229 30.98 14.1533 30.9313 14.0964 30.8695C14.0395 30.8077 13.9968 30.7342 13.9712 30.6542C13.9464 30.5766 13.9383 30.4946 13.9474 30.4136Z" fill="#531166"/>
</svg>
