<svg width="24" height="24" viewBox="0 0 24 24" fill="none" xmlns="http://www.w3.org/2000/svg">
<path d="M15.7375 3.55672C15.7375 5.52104 14.1451 7.11344 12.1807 7.11344C10.2164 7.11344 8.62402 5.52104 8.62402 3.55672C8.62402 1.5924 10.2164 0 12.1807 0C14.1451 0 15.7375 1.5924 15.7375 3.55672Z" fill="#FFB34E"/>
<path d="M8.18738 15.3926C7.66261 15.3634 7.15626 14.897 6.81718 14.1098C6.00088 12.2148 5.37699 8.15086 9.22525 7.05469C11.0445 8.37533 13.1643 8.45203 15.2226 7.11775C15.2842 7.07787 15.3578 7.0603 15.4298 7.0742C17.0603 7.38897 19.7866 9.18626 17.8946 14.1099C17.6054 14.8625 16.963 15.402 16.3975 15.4478C16.3508 15.4516 16.3085 15.479 16.2902 15.5222L12.9248 23.5006C12.6411 24.1731 11.6847 24.1637 11.4144 23.4856L8.18738 15.3926Z" fill="#FFB34E"/>
<path d="M8.18738 15.3926C7.66261 15.3634 7.15626 14.897 6.81718 14.1098C6.00088 12.2148 5.37699 8.15086 9.22525 7.05469C7.61209 7.30735 4.70644 9.07211 6.64223 14.1098C6.9447 14.897 7.60431 15.3926 8.18738 15.3926Z" fill="#FFB34E"/>
</svg>
