<svg width="64" height="64" viewBox="0 0 64 64" fill="none" xmlns="http://www.w3.org/2000/svg">
<path fill-rule="evenodd" clip-rule="evenodd" d="M32.891 27.0074L42.8439 27.8779C42.363 33.3748 37.5171 37.441 32.0202 36.9601C26.5234 36.4792 22.4572 31.6333 22.9381 26.1364L32.891 27.0074ZM32.891 27.0074L22.9381 26.1364C23.419 20.6396 28.2649 16.5733 33.7618 17.0542C39.2586 17.5352 43.3248 22.3811 42.8439 27.8779L32.891 27.0074ZM45.7712 28.1343C45.9192 26.4428 45.7326 24.7388 45.222 23.1194C44.7115 21.5001 43.8869 19.9972 42.7955 18.6965C41.7041 17.3958 40.3672 16.3228 38.8611 15.5388C37.3551 14.7548 35.7093 14.2751 34.0179 14.1271C32.3264 13.9792 30.6224 14.1658 29.003 14.6764C27.3837 15.1869 25.8808 16.0115 24.5801 17.1029C23.2794 18.1943 22.2064 19.5312 21.4224 21.0372C20.6384 22.5433 20.1587 24.1891 20.0107 25.8805C19.5237 31.4469 24.7088 40.5944 28.894 47.9781L28.895 47.9798C29.1088 48.357 29.32 48.7296 29.5277 49.0969C30.1319 50.1653 31.6167 50.318 32.4154 49.3859C38.1449 42.6992 45.2585 33.9953 45.7712 28.1343Z" fill="#FFB34E"/>
<path fill-rule="evenodd" clip-rule="evenodd" d="M33.5458 21.1329C32.1726 21.0127 30.962 22.0285 30.8418 23.4017C30.7217 24.7749 31.7375 25.9855 33.1107 26.1057C34.4839 26.2258 35.6945 25.21 35.8146 23.8368C35.9348 22.4636 34.919 21.253 33.5458 21.1329ZM30.2893 23.3534C30.4361 21.675 31.9158 20.4335 33.5941 20.5803C35.2725 20.7272 36.514 22.2068 36.3672 23.8851C36.2203 25.5635 34.7407 26.805 33.0624 26.6582C31.384 26.5113 30.1425 25.0317 30.2893 23.3534Z" fill="#FFB34E"/>
<path d="M30.8418 23.4017C30.962 22.0285 32.1726 21.0127 33.5458 21.1329C34.919 21.253 35.9348 22.4636 35.8146 23.8368C35.6945 25.21 34.4839 26.2258 33.1107 26.1057C31.7375 25.9855 30.7217 24.7749 30.8418 23.4017Z" fill="#FFB34E"/>
<path fill-rule="evenodd" clip-rule="evenodd" d="M29.0134 28.6385C30.1508 27.7736 31.5697 27.3634 32.9932 27.4879C34.4168 27.6124 35.7428 28.2628 36.7128 29.3121L36.7146 29.3141C37.4716 30.1487 37.928 31.2124 38.0113 32.3361L38.0118 32.3429L38.0119 32.3497C38.0152 32.4796 37.9903 32.6086 37.939 32.7279C37.8878 32.8472 37.8113 32.9541 37.7149 33.0411C37.6185 33.1281 37.5044 33.1933 37.3805 33.2322C37.2585 33.2704 37.1297 33.2822 37.0028 33.2669L28.0343 32.4823C27.9067 32.4755 27.7819 32.4415 27.6685 32.3824C27.5532 32.3224 27.4524 32.238 27.3731 32.135C27.2938 32.0321 27.2378 31.913 27.2092 31.7863C27.1805 31.6595 27.1799 31.528 27.2072 31.4009L27.2083 31.396L27.2095 31.3911C27.4867 30.2989 28.1208 29.3306 29.0113 28.6401L29.0134 28.6385ZM29.3501 29.0792C28.5594 29.6927 27.9959 30.5523 27.7485 31.5219C27.7391 31.5689 27.7396 31.6173 27.7502 31.664C27.7611 31.7122 27.7823 31.7574 27.8124 31.7965C27.8426 31.8356 27.8809 31.8677 27.9247 31.8905C27.9684 31.9133 28.0167 31.9263 28.066 31.9285L28.0717 31.9288L37.0616 32.7153L37.0671 32.716C37.1166 32.7223 37.1669 32.7178 37.2146 32.7029C37.2623 32.688 37.3062 32.6629 37.3432 32.6294C37.3803 32.5959 37.4097 32.5549 37.4294 32.509C37.4484 32.4649 37.4579 32.4174 37.4576 32.3694C37.382 31.3723 36.9763 30.4287 36.3046 29.6877C35.4283 28.7402 34.2306 28.1529 32.9449 28.0404C31.6592 27.9279 30.3776 28.2983 29.3501 29.0792Z" fill="#FFB34E"/>
<path d="M27.7485 31.5219C27.9959 30.5523 28.5594 29.6927 29.3501 29.0792C30.3776 28.2983 31.6592 27.9279 32.9449 28.0404C34.2306 28.1529 35.4283 28.7402 36.3046 29.6877C36.9763 30.4287 37.382 31.3723 37.4576 32.3694C37.4579 32.4174 37.4484 32.4649 37.4294 32.509C37.4097 32.5549 37.3803 32.5959 37.3432 32.6294C37.3062 32.6629 37.2623 32.688 37.2146 32.7029C37.1669 32.7178 37.1166 32.7223 37.0671 32.716L37.0616 32.7153L28.0717 31.9288L28.066 31.9285C28.0167 31.9263 27.9684 31.9133 27.9247 31.8905C27.8809 31.8677 27.8426 31.8356 27.8124 31.7965C27.7823 31.7574 27.7611 31.7122 27.7502 31.664C27.7396 31.6173 27.7391 31.5689 27.7485 31.5219Z" fill="#FFB34E"/>
</svg>
