<svg width="64" height="64" viewBox="0 0 64 64" fill="none" xmlns="http://www.w3.org/2000/svg">
<g clip-path="url(#clip0_378_15)">
<path d="M44.7211 44.7215C42.981 46.4616 41.0394 47.8774 38.9714 48.969L61.35 61.8288C61.4026 61.8591 61.4576 61.8878 61.5179 61.8955C61.7825 61.9293 62.0135 61.6991 61.9812 61.4347C61.9736 61.3729 61.944 61.3166 61.9127 61.2628L48.9686 38.9718C47.877 41.0398 46.4612 42.9814 44.7211 44.7215Z" fill="#7C7878"/>
<path fill-rule="evenodd" clip-rule="evenodd" d="M48.9686 38.9718C53.7343 29.9429 52.3185 18.5048 44.7211 10.9074C35.3836 1.56993 20.2445 1.56993 10.907 10.9074C1.56954 20.2449 1.56954 35.384 10.907 44.7215C18.5044 52.3189 29.9425 53.7347 38.9714 48.969C41.0394 47.8774 42.981 46.4616 44.7211 44.7215C46.4612 42.9814 47.877 41.0398 48.9686 38.9718ZM38.6934 38.3997C44.7018 32.3913 44.7018 22.6496 38.6934 16.6411C32.6849 10.6326 22.9432 10.6326 16.9348 16.6411C10.9263 22.6496 10.9263 32.3913 16.9348 38.3997C22.9432 44.4082 32.6849 44.4082 38.6934 38.3997Z" fill="#500067"/>
<path d="M27.4671 26.1842L27.4824 26.1921L31.4808 28.255V35.9949C31.4808 36.1416 31.3619 36.2605 31.2152 36.2605H28.8874C28.7407 36.2605 28.6217 36.1416 28.6217 35.9949V32.3425C28.6217 31.8746 28.2424 31.4953 27.7746 31.4953H25.4449C24.9771 31.4953 24.5978 31.8746 24.5978 32.3425V35.9949C24.5978 36.1416 24.4788 36.2605 24.3321 36.2605H22.0043C21.8576 36.2605 21.7387 36.1416 21.7387 35.9949V28.4358L22.5487 28.069C22.5608 28.0636 22.5725 28.0576 22.584 28.051L26.3694 25.8902C26.5257 25.801 26.7165 25.7969 26.8764 25.8794L27.4671 26.1842Z" fill="#500067"/>
<path fill-rule="evenodd" clip-rule="evenodd" d="M20.8915 29.3239V35.9949C20.8915 36.1416 20.7726 36.2605 20.6259 36.2605H18.1383C17.7874 36.2605 17.5029 35.9761 17.5029 35.6252L17.5029 22.8121C17.5029 22.4612 17.7874 22.1767 18.1383 22.1767H24.4919C24.8428 22.1767 25.1272 22.4612 25.1272 22.8121V25.441C25.1272 25.6305 25.0263 25.8056 24.8624 25.9006L23.4426 26.7236H19.078C18.6154 26.7309 18.2442 27.108 18.2442 27.5707V28.4768C18.2442 28.9446 18.6235 29.3239 19.0913 29.3239H20.8915ZM18.2442 24.4005C18.2442 23.9326 18.6235 23.5533 19.0913 23.5533H23.5388C24.0067 23.5533 24.386 23.9326 24.386 24.4005V25.1417C24.386 25.6096 24.0067 25.9889 23.5388 25.9889H19.0913C18.6235 25.9889 18.2442 25.6096 18.2442 25.1417V24.4005Z" fill="#500067"/>
<path fill-rule="evenodd" clip-rule="evenodd" d="M32.328 32.0248V27.9969C32.328 27.8384 32.2395 27.6931 32.0986 27.6205L28.3799 25.7019C28.2033 25.6107 28.0923 25.4286 28.0923 25.2298V18.6822C28.0923 18.3313 28.3767 18.0469 28.7276 18.0469H37.1991C37.55 18.0469 37.8344 18.3313 37.8344 18.6822V35.6252C37.8344 35.9761 37.55 36.2605 37.1991 36.2605H35.7704C35.6237 36.2605 35.5048 36.1416 35.5048 35.9949V32.8719C35.5048 32.4041 35.1255 32.0248 34.6576 32.0248H32.328ZM29.363 20.6942C29.363 20.2263 29.7423 19.8471 30.2101 19.8471H31.4808C31.9487 19.8471 32.328 20.2263 32.328 20.6942V21.9649C32.328 22.4328 31.9487 22.8121 31.4808 22.8121H30.2101C29.7423 22.8121 29.363 22.4328 29.363 21.9649V20.6942ZM33.5987 20.6942C33.5987 20.2263 33.978 19.8471 34.4458 19.8471H35.7166C36.1844 19.8471 36.5637 20.2263 36.5637 20.6942V21.9649C36.5637 22.4328 36.1844 22.8121 35.7166 22.8121H34.4458C33.978 22.8121 33.5987 22.4328 33.5987 21.9649V20.6942ZM33.5987 24.9299C33.5987 24.4621 33.978 24.0828 34.4458 24.0828H35.7166C36.1844 24.0828 36.5637 24.4621 36.5637 24.9299V26.2007C36.5637 26.6685 36.1844 27.0478 35.7166 27.0478H34.4458C33.978 27.0478 33.5987 26.6685 33.5987 26.2007V24.9299Z" fill="#500067"/>
<path d="M34.4458 24.9299H35.7166V26.2007H34.4458V24.9299Z" fill="#500067"/>
<path d="M34.4458 20.6942H35.7166V21.9649H34.4458V20.6942Z" fill="#500067"/>
<path d="M30.2101 20.6942H31.4808V21.9649H30.2101V20.6942Z" fill="#500067"/>
<path d="M19.0913 24.4005H23.5388V25.1417H19.0913V24.4005Z" fill="#500067"/>
<path d="M19.0913 27.5707L21.6858 27.5298L21.1404 27.7768C20.9889 27.8454 20.8915 27.9963 20.8915 28.1626V28.4768H19.0913V27.5707Z" fill="#500067"/>
<path d="M32.328 35.9949C32.328 36.1416 32.4469 36.2605 32.5936 36.2605H34.392C34.5387 36.2605 34.6576 36.1416 34.6576 35.9949V33.6688C34.6576 33.2287 34.3008 32.8719 33.8607 32.8719H33.1249C32.6848 32.8719 32.328 33.2287 32.328 33.6688V35.9949Z" fill="#500067"/>
<path d="M27.7746 35.9949C27.7746 36.1416 27.6556 36.2605 27.5089 36.2605H25.7106C25.5639 36.2605 25.4449 36.1416 25.4449 35.9949V32.6081C25.4449 32.4614 25.5639 32.3425 25.7106 32.3425H27.5089C27.6556 32.3425 27.7746 32.4614 27.7746 32.6081V35.9949Z" fill="#500067"/>
</g>
<defs>
<clipPath id="clip0_378_15">
<rect width="64" height="64" fill="white"/>
</clipPath>
</defs>
</svg>
