<svg width="20" height="20" viewBox="0 0 20 20" fill="none" xmlns="http://www.w3.org/2000/svg">
<g clip-path="url(#clip0_310_58)">
<path d="M12.1132 7.66806C12.1139 7.67013 12.1145 7.6722 12.1152 7.67425L12.6304 9.2877L10.7116 11.2066C10.5944 11.3237 10.4045 11.3237 10.2873 11.2066L9.9505 10.8698C9.83335 10.7526 9.83335 10.5627 9.9505 10.4455L10.7813 9.61468C10.9059 9.49014 10.9059 9.28822 10.7813 9.16367L10.1612 8.54354C10.0366 8.419 9.83472 8.419 9.71018 8.54354L8.87937 9.37436C8.76221 9.49152 8.57226 9.49152 8.4551 9.37436L8.1183 9.03755C8.00114 8.9204 8.00114 8.73045 8.1183 8.61329L9.98903 6.74256L10.3023 6.86056C10.3069 6.86231 10.3117 6.86384 10.3165 6.86515L11.6579 7.23164C11.8738 7.29062 12.0452 7.45487 12.1132 7.66806V7.66806Z" fill="#500067"/>
<path fill-rule="evenodd" clip-rule="evenodd" d="M9.52712 6.75346L7.89279 8.38779C7.77564 8.50494 7.58569 8.50494 7.46853 8.38779L6.94778 7.86704C6.85437 7.77363 6.85437 7.62219 6.94778 7.52878L10.3585 4.11806C10.4519 4.02465 10.6033 4.02465 10.6968 4.11806L12.388 5.80933C12.4814 5.90273 12.4814 6.05417 12.388 6.14758L12.0142 6.52142C11.762 6.77362 11.3946 6.8724 11.0499 6.78068L10.8984 6.74035L9.73655 5.57854C9.61147 5.45734 9.41228 5.45891 9.28913 5.58206L9.04793 5.82327C8.92339 5.94781 8.92339 6.14973 9.04793 6.27427L9.52712 6.75346ZM10.133 4.73819C10.2575 4.61365 10.4595 4.61365 10.584 4.73819L11.7679 5.92208C11.8924 6.04662 11.8924 6.24854 11.7679 6.37308L11.5706 6.5704C11.446 6.69494 11.2441 6.69494 11.1196 6.5704L9.93569 5.38651C9.81114 5.26197 9.81114 5.06005 9.93569 4.93551L10.133 4.73819Z" fill="#500067"/>
<path fill-rule="evenodd" clip-rule="evenodd" d="M11.8525 10.5167L12.9246 9.4445C12.9668 9.40231 12.9819 9.34009 12.9638 9.28325L12.6329 8.24702C12.5191 7.89054 12.6138 7.50033 12.8784 7.23572L14.2766 5.83752C14.37 5.74411 14.5215 5.74411 14.6149 5.83752L16.8699 8.09254C16.9633 8.18594 16.9633 8.33739 16.8699 8.43079L12.3598 12.9408C12.2664 13.0342 12.115 13.0342 12.0216 12.9408L11.7827 12.702C11.6656 12.5848 11.6656 12.3949 11.7827 12.2777L12.4726 11.5878C12.5971 11.4633 12.5971 11.2614 12.4726 11.1368L11.8525 10.5167ZM14.0793 6.71134C14.2038 6.5868 14.4058 6.5868 14.5303 6.71134L14.8685 7.04959C14.9931 7.17413 14.9931 7.37605 14.8685 7.50059L14.5303 7.83885C14.4058 7.96339 14.2038 7.96339 14.0793 7.83885L13.741 7.50059C13.6165 7.37605 13.6165 7.17413 13.741 7.04959L14.0793 6.71134ZM15.2068 7.83885C15.3313 7.71431 15.5333 7.71431 15.6578 7.83885L15.9961 8.1771C16.1206 8.30164 16.1206 8.50357 15.9961 8.62811L15.6578 8.96636C15.5333 9.0909 15.3313 9.0909 15.2068 8.96636L14.8685 8.62811C14.744 8.50356 14.744 8.30164 14.8685 8.1771L15.2068 7.83885ZM14.0793 8.96636C14.2038 8.84182 14.4058 8.84182 14.5303 8.96636L14.8685 9.30461C14.9931 9.42916 14.9931 9.63108 14.8685 9.75562L14.5303 10.0939C14.4058 10.2184 14.2038 10.2184 14.0793 10.0939L13.741 9.75562C13.6165 9.63108 13.6165 9.42916 13.741 9.30461L14.0793 8.96636Z" fill="#500067"/>
<path d="M14.3048 9.19186L14.643 9.53012L14.3048 9.86837L13.9665 9.53012L14.3048 9.19186Z" fill="#500067"/>
<path d="M15.4323 8.06435L15.7706 8.4026L15.4323 8.74086L15.0941 8.4026L15.4323 8.06435Z" fill="#500067"/>
<path d="M14.3048 6.93684L14.643 7.27509L14.3048 7.61335L13.9665 7.27509L14.3048 6.93684Z" fill="#500067"/>
<path d="M10.3585 4.96369L11.5424 6.14758L11.3451 6.3449L10.1612 5.16101L10.3585 4.96369Z" fill="#500067"/>
<path d="M9.51463 5.80757L10.2161 6.48731L10.0052 6.40787C9.94661 6.3858 9.88052 6.40006 9.83625 6.44433L9.75262 6.52796L9.27343 6.04877L9.51463 5.80757Z" fill="#500067"/>
<path d="M10.9371 11.4321C10.8199 11.5492 10.8199 11.7392 10.9371 11.8563L11.1329 12.0522C11.2501 12.1694 11.44 12.1694 11.5572 12.0522L12.035 11.5745C12.1521 11.4573 12.1521 11.2673 12.035 11.1502L11.8391 10.9543C11.7219 10.8372 11.532 10.8372 11.4148 10.9543L10.9371 11.4321Z" fill="#500067"/>
<path d="M9.725 10.22C9.60784 10.3372 9.41789 10.3372 9.30074 10.22L9.10487 10.0241C8.98771 9.90697 8.98771 9.71702 9.10487 9.59986L9.72355 8.98118C9.84071 8.86402 10.0307 8.86402 10.1478 8.98118L10.3437 9.17704C10.4608 9.2942 10.4608 9.48415 10.3437 9.60131L9.725 10.22Z" fill="#500067"/>
<path fill-rule="evenodd" clip-rule="evenodd" d="M12 8.15879L15.925 12.0835C13.7573 14.2511 10.2429 14.2511 8.07532 12.0835C5.90771 9.91589 5.90771 6.40149 8.07532 4.23388L12 8.15879ZM12 8.15879L8.07532 4.23388C10.2429 2.06626 13.7573 2.06626 15.925 4.23388C18.0926 6.40149 18.0926 9.91589 15.925 12.0835L12 8.15879ZM17.0792 13.238C17.7462 12.571 18.2753 11.7791 18.6363 10.9076C18.9973 10.0361 19.1831 9.10207 19.1831 8.15879C19.1831 7.2155 18.9973 6.28144 18.6363 5.40996C18.2753 4.53847 17.7462 3.74662 17.0792 3.07961C16.4122 2.41261 15.6204 1.88351 14.7489 1.52253C13.8774 1.16155 12.9433 0.975752 12 0.975752C11.0568 0.975752 10.1227 1.16155 9.25122 1.52253C8.37973 1.88351 7.58788 2.41261 6.92087 3.07961C4.72586 5.27462 3.66588 11.0193 2.8103 15.6561L2.8101 15.6573C2.76639 15.8941 2.72322 16.1281 2.68045 16.3586C2.55604 17.0291 3.13343 17.6243 3.80619 17.5128C8.63243 16.7131 14.768 15.5492 17.0792 13.238Z" fill="#500067"/>
</g>
<defs>
<clipPath id="clip0_310_58">
<rect width="20" height="20" fill="white"/>
</clipPath>
</defs>
</svg>
