<svg width="64" height="64" viewBox="0 0 64 64" fill="none" xmlns="http://www.w3.org/2000/svg">
<path d="M31.4885 21.3822C31.4944 21.3853 31.5002 21.3884 31.5062 21.3913L36.1163 23.7698V32.7C36.1163 32.8657 35.982 33 35.8163 33H33.1198C32.9541 33 32.8198 32.8657 32.8198 32.7V28.4826C32.8198 27.9431 32.3825 27.5058 31.843 27.5058H29.157C28.6175 27.5058 28.1802 27.9431 28.1802 28.4826V32.7C28.1802 32.8657 28.0459 33 27.8802 33H25.1837C25.018 33 24.8837 32.8657 24.8837 32.7V23.9782L25.8177 23.5554C25.8316 23.5491 25.8452 23.5421 25.8584 23.5346L30.0401 21.1475C30.3343 20.9796 30.6934 20.972 30.9944 21.1272L31.4885 21.3822Z" fill="#851074"/>
<path fill-rule="evenodd" clip-rule="evenodd" d="M23.907 25.0022V32.7C23.907 32.8657 23.7727 33 23.607 33H20.7326C20.328 33 20 32.672 20 32.2674V17.4942C20 17.0896 20.328 16.7616 20.7326 16.7616H28.0581C28.4627 16.7616 28.7907 17.0896 28.7907 17.4942V20.302C28.7907 20.6587 28.6007 20.9884 28.2922 21.1672L26.8483 22.0041H21.816C21.2826 22.0125 20.8547 22.4473 20.8547 22.9807V24.0255C20.8547 24.5649 21.292 25.0022 21.8314 25.0022H23.907ZM20.8547 19.3256C20.8547 18.7861 21.292 18.3488 21.8314 18.3488H26.9593C27.4987 18.3488 27.936 18.7861 27.936 19.3256V20.1802C27.936 20.7197 27.4987 21.157 26.9593 21.157H21.8314C21.292 21.157 20.8547 20.7197 20.8547 20.1802V19.3256Z" fill="#851074"/>
<path fill-rule="evenodd" clip-rule="evenodd" d="M37.093 28.1163V23.4722C37.093 23.2894 36.991 23.122 36.8286 23.0382L32.7508 20.9343C32.4182 20.7628 32.2093 20.4199 32.2093 20.0457V12.7326C32.2093 12.328 32.5373 12 32.9419 12H42.7093C43.1139 12 43.4419 12.328 43.4419 12.7326V32.2674C43.4419 32.672 43.1139 33 42.7093 33H41.0558C40.8901 33 40.7558 32.8657 40.7558 32.7V29.093C40.7558 28.5536 40.3185 28.1163 39.7791 28.1163H37.093ZM33.6744 15.0523C33.6744 14.5129 34.1117 14.0756 34.6512 14.0756H36.1163C36.6557 14.0756 37.093 14.5129 37.093 15.0523V16.5174C37.093 17.0569 36.6557 17.4942 36.1163 17.4942H34.6512C34.1117 17.4942 33.6744 17.0569 33.6744 16.5174V15.0523ZM38.5581 15.0523C38.5581 14.5129 38.9954 14.0756 39.5349 14.0756H41C41.5394 14.0756 41.9767 14.5129 41.9767 15.0523V16.5174C41.9767 17.0569 41.5394 17.4942 41 17.4942H39.5349C38.9954 17.4942 38.5581 17.0569 38.5581 16.5174V15.0523ZM38.5581 19.936C38.5581 19.3966 38.9954 18.9593 39.5349 18.9593H41C41.5394 18.9593 41.9767 19.3966 41.9767 19.936V21.4012C41.9767 21.9406 41.5394 22.3779 41 22.3779H39.5349C38.9954 22.3779 38.5581 21.9406 38.5581 21.4012V19.936Z" fill="#851074"/>
<path d="M39.5349 19.936H41V21.4012H39.5349V19.936Z" fill="#851074"/>
<path d="M39.5349 15.0523H41V16.5174H39.5349V15.0523Z" fill="#851074"/>
<path d="M34.6512 15.0523H36.1163V16.5174H34.6512V15.0523Z" fill="#851074"/>
<path d="M21.8314 19.3256H26.9593V20.1802H21.8314V19.3256Z" fill="#851074"/>
<path d="M21.8314 22.9807L24.8228 22.9337L24.1939 23.2184C24.0192 23.2975 23.907 23.4715 23.907 23.6633V24.0255H21.8314V22.9807Z" fill="#851074"/>
<path d="M37.093 32.7C37.093 32.8657 37.2273 33 37.393 33H39.4791C39.6448 33 39.7791 32.8657 39.7791 32.7V29.393C39.7791 29.2273 39.6448 29.093 39.4791 29.093H37.393C37.2273 29.093 37.093 29.2273 37.093 29.393V32.7Z" fill="#851074"/>
<path d="M31.843 32.7C31.843 32.8657 31.7087 33 31.543 33H29.457C29.2913 33 29.157 32.8657 29.157 32.7V28.7826C29.157 28.6169 29.2913 28.4826 29.457 28.4826H31.543C31.7087 28.4826 31.843 28.6169 31.843 28.7826L31.843 32.7Z" fill="#851074"/>
<path fill-rule="evenodd" clip-rule="evenodd" d="M32 23.0004L49 23C49 32.3888 41.3888 40 32 40C22.6112 40 15 32.3888 15 23L32 23.0004ZM32 23.0004L15 23C15 13.6112 22.6112 6 32 6C41.3888 6 49 13.6112 49 23L32 23.0004ZM54 23.0004C54 20.1113 53.431 17.2505 52.3253 14.5814C51.2197 11.9122 49.5992 9.48694 47.5564 7.44405C45.5135 5.40116 43.0882 3.78065 40.419 2.67505C37.7499 1.56944 34.8891 1.0004 32 1.0004C29.1109 1.0004 26.2501 1.56945 23.581 2.67505C20.9118 3.78066 18.4865 5.40116 16.4436 7.44405C14.4008 9.48694 12.7803 11.9122 11.6746 14.5814C10.569 17.2505 10 20.1113 10 23.0004C10 32.5079 20.1456 47.2447 28.3348 59.1398L28.3368 59.1426C28.7551 59.7503 29.1683 60.3505 29.5748 60.9422C30.7574 62.6637 33.297 62.7024 34.5126 61.004C43.2329 48.8198 54 33.0113 54 23.0004Z" fill="#851074"/>
</svg>
