<svg width="44" height="62" viewBox="0 0 44 62" fill="none" xmlns="http://www.w3.org/2000/svg">
<path d="M21.4885 20.3822C21.4944 20.3853 21.5002 20.3884 21.5062 20.3913L26.1163 22.7698V31.7C26.1163 31.8657 25.982 32 25.8163 32H23.1198C22.9541 32 22.8198 31.8657 22.8198 31.7V27.4826C22.8198 26.9431 22.3825 26.5058 21.843 26.5058H19.157C18.6175 26.5058 18.1802 26.9431 18.1802 27.4826V31.7C18.1802 31.8657 18.0459 32 17.8802 32H15.1837C15.018 32 14.8837 31.8657 14.8837 31.7V22.9782L15.8177 22.5554C15.8316 22.5491 15.8452 22.5421 15.8584 22.5346L20.0401 20.1475C20.3343 19.9796 20.6934 19.972 20.9944 20.1272L21.4885 20.3822Z" fill="#851074"/>
<path fill-rule="evenodd" clip-rule="evenodd" d="M13.907 24.0022V31.7C13.907 31.8657 13.7727 32 13.607 32H10.7326C10.328 32 10 31.672 10 31.2674V16.4942C10 16.0896 10.328 15.7616 10.7326 15.7616H18.0581C18.4627 15.7616 18.7907 16.0896 18.7907 16.4942V19.302C18.7907 19.6587 18.6007 19.9884 18.2922 20.1672L16.8483 21.0041H11.816C11.2826 21.0125 10.8547 21.4473 10.8547 21.9807V23.0255C10.8547 23.5649 11.292 24.0022 11.8314 24.0022H13.907ZM10.8547 18.3256C10.8547 17.7861 11.292 17.3488 11.8314 17.3488H16.9593C17.4987 17.3488 17.936 17.7861 17.936 18.3256V19.1802C17.936 19.7197 17.4987 20.157 16.9593 20.157H11.8314C11.292 20.157 10.8547 19.7197 10.8547 19.1802V18.3256Z" fill="#851074"/>
<path fill-rule="evenodd" clip-rule="evenodd" d="M27.093 27.1163V22.4722C27.093 22.2894 26.991 22.122 26.8286 22.0382L22.7508 19.9343C22.4182 19.7628 22.2093 19.4199 22.2093 19.0457V11.7326C22.2093 11.328 22.5373 11 22.9419 11H32.7093C33.1139 11 33.4419 11.328 33.4419 11.7326V31.2674C33.4419 31.672 33.1139 32 32.7093 32H31.0558C30.8901 32 30.7558 31.8657 30.7558 31.7V28.093C30.7558 27.5536 30.3185 27.1163 29.7791 27.1163H27.093ZM23.6744 14.0523C23.6744 13.5129 24.1117 13.0756 24.6512 13.0756H26.1163C26.6557 13.0756 27.093 13.5129 27.093 14.0523V15.5174C27.093 16.0569 26.6557 16.4942 26.1163 16.4942H24.6512C24.1117 16.4942 23.6744 16.0569 23.6744 15.5174V14.0523ZM28.5581 14.0523C28.5581 13.5129 28.9954 13.0756 29.5349 13.0756H31C31.5394 13.0756 31.9767 13.5129 31.9767 14.0523V15.5174C31.9767 16.0569 31.5394 16.4942 31 16.4942H29.5349C28.9954 16.4942 28.5581 16.0569 28.5581 15.5174V14.0523ZM28.5581 18.936C28.5581 18.3966 28.9954 17.9593 29.5349 17.9593H31C31.5394 17.9593 31.9767 18.3966 31.9767 18.936V20.4012C31.9767 20.9406 31.5394 21.3779 31 21.3779H29.5349C28.9954 21.3779 28.5581 20.9406 28.5581 20.4012V18.936Z" fill="#851074"/>
<path d="M29.5349 18.936H31V20.4012H29.5349V18.936Z" fill="#851074"/>
<path d="M29.5349 14.0523H31V15.5174H29.5349V14.0523Z" fill="#851074"/>
<path d="M24.6512 14.0523H26.1163V15.5174H24.6512V14.0523Z" fill="#851074"/>
<path d="M11.8314 18.3256H16.9593V19.1802H11.8314V18.3256Z" fill="#851074"/>
<path d="M11.8314 21.9807L14.8228 21.9337L14.1939 22.2184C14.0192 22.2975 13.907 22.4715 13.907 22.6633V23.0255H11.8314V21.9807Z" fill="#851074"/>
<path d="M27.093 31.7C27.093 31.8657 27.2273 32 27.393 32H29.4791C29.6448 32 29.7791 31.8657 29.7791 31.7V28.393C29.7791 28.2273 29.6448 28.093 29.4791 28.093H27.393C27.2273 28.093 27.093 28.2273 27.093 28.393V31.7Z" fill="#851074"/>
<path d="M21.843 31.7C21.843 31.8657 21.7087 32 21.543 32H19.457C19.2913 32 19.157 31.8657 19.157 31.7V27.7826C19.157 27.6169 19.2913 27.4826 19.457 27.4826H21.543C21.7087 27.4826 21.843 27.6169 21.843 27.7826L21.843 31.7Z" fill="#851074"/>
<path fill-rule="evenodd" clip-rule="evenodd" d="M22 22.0004L39 22C39 31.3888 31.3888 39 22 39C12.6112 39 5 31.3888 5 22L22 22.0004ZM22 22.0004L5 22C5 12.6112 12.6112 5 22 5C31.3888 5 39 12.6112 39 22L22 22.0004ZM44 22.0004C44 19.1113 43.431 16.2505 42.3253 13.5814C41.2197 10.9122 39.5992 8.48694 37.5564 6.44405C35.5135 4.40116 33.0882 2.78065 30.419 1.67505C27.7499 0.569442 24.8891 0.000400417 22 0.000400543C19.1109 0.000400669 16.2501 0.569449 13.581 1.67505C10.9118 2.78066 8.48654 4.40116 6.44365 6.44405C4.40076 8.48694 2.78025 10.9122 1.67465 13.5814C0.569046 16.2505 -2.52571e-07 19.1113 0 22.0004C0 31.5079 10.1456 46.2447 18.3348 58.1398L18.3368 58.1426C18.7551 58.7503 19.1683 59.3505 19.5748 59.9422C20.7574 61.6637 23.297 61.7024 24.5126 60.004C33.2329 47.8198 44 32.0113 44 22.0004Z" fill="#851074"/>
</svg>
