<svg width="24" height="24" viewBox="0 0 24 24" fill="none" xmlns="http://www.w3.org/2000/svg">
<path d="M12.4207 8.70186L12.4267 8.70497L14 9.51667V12.5621C14 12.6199 13.9532 12.6667 13.8955 12.6667H12.9795C12.9218 12.6667 12.875 12.6199 12.875 12.5621V11.125C12.875 10.9409 12.7258 10.7917 12.5417 10.7917L11.625 10.7917C11.4409 10.7917 11.2917 10.9409 11.2917 11.125V12.5621C11.2917 12.6199 11.2449 12.6667 11.1871 12.6667H10.2712C10.2135 12.6667 10.1667 12.6199 10.1667 12.5621V9.58781L10.4854 9.4435C10.4901 9.44135 10.4948 9.43899 10.4993 9.43641L11.9888 8.58616C12.0502 8.55106 12.1253 8.54947 12.1882 8.58193L12.4207 8.70186Z" fill="#500067"/>
<path fill-rule="evenodd" clip-rule="evenodd" d="M9.83333 9.93727V12.5621C9.83333 12.6199 9.78654 12.6667 9.72881 12.6667H8.75C8.61193 12.6667 8.5 12.5547 8.5 12.4167L8.5 7.375C8.5 7.23693 8.61193 7.125 8.75 7.125L11.25 7.125C11.3881 7.125 11.5 7.23693 11.5 7.375V8.40943C11.5 8.48398 11.4603 8.5529 11.3958 8.59029L10.8371 8.91411H9.11975C8.93773 8.91697 8.79167 9.06535 8.79167 9.2474V9.60394C8.79167 9.78803 8.94091 9.93727 9.125 9.93727H9.83333ZM8.79167 8C8.79167 7.81591 8.94091 7.66667 9.125 7.66667L10.875 7.66667C11.0591 7.66667 11.2083 7.81591 11.2083 8V8.29167C11.2083 8.47576 11.0591 8.625 10.875 8.625H9.125C8.94091 8.625 8.79167 8.47576 8.79167 8.29167V8Z" fill="#500067"/>
<path fill-rule="evenodd" clip-rule="evenodd" d="M14.3333 11V9.41512C14.3333 9.35275 14.2985 9.2956 14.2431 9.267L12.7799 8.51208C12.7103 8.47622 12.6667 8.40453 12.6667 8.32631V5.75C12.6667 5.61193 12.7786 5.5 12.9167 5.5H16.25C16.3881 5.5 16.5 5.61193 16.5 5.75V12.4167C16.5 12.5547 16.3881 12.6667 16.25 12.6667H15.6879C15.6301 12.6667 15.5833 12.6199 15.5833 12.5621V11.3333C15.5833 11.1492 15.4341 11 15.25 11H14.3333ZM13.1667 6.54167C13.1667 6.35757 13.3159 6.20833 13.5 6.20833H14C14.1841 6.20833 14.3333 6.35757 14.3333 6.54167V7.04167C14.3333 7.22576 14.1841 7.375 14 7.375H13.5C13.3159 7.375 13.1667 7.22576 13.1667 7.04167V6.54167ZM14.8333 6.54167C14.8333 6.35757 14.9826 6.20833 15.1667 6.20833H15.6667C15.8508 6.20833 16 6.35757 16 6.54167V7.04167C16 7.22576 15.8508 7.375 15.6667 7.375H15.1667C14.9826 7.375 14.8333 7.22576 14.8333 7.04167V6.54167ZM14.8333 8.20833C14.8333 8.02424 14.9826 7.875 15.1667 7.875H15.6667C15.8508 7.875 16 8.02424 16 8.20833V8.70833C16 8.89243 15.8508 9.04167 15.6667 9.04167H15.1667C14.9826 9.04167 14.8333 8.89243 14.8333 8.70833V8.20833Z" fill="#500067"/>
<path d="M15.1667 8.20833H15.6667V8.70833H15.1667V8.20833Z" fill="#500067"/>
<path d="M15.1667 6.54167H15.6667V7.04167H15.1667V6.54167Z" fill="#500067"/>
<path d="M13.5 6.54167H14V7.04167H13.5V6.54167Z" fill="#500067"/>
<path d="M9.125 8H10.875V8.29167H9.125V8Z" fill="#500067"/>
<path d="M9.125 9.2474L10.1459 9.23133L9.93126 9.32849C9.87164 9.35549 9.83333 9.41488 9.83333 9.48032V9.60394H9.125V9.2474Z" fill="#500067"/>
<path d="M14.3333 12.5621C14.3333 12.6199 14.3801 12.6667 14.4379 12.6667H15.1455C15.2032 12.6667 15.25 12.6199 15.25 12.5621V11.6469C15.25 11.4737 15.1096 11.3333 14.9364 11.3333H14.6469C14.4737 11.3333 14.3333 11.4737 14.3333 11.6469V12.5621Z" fill="#500067"/>
<path d="M12.5417 12.5621C12.5417 12.6199 12.4949 12.6667 12.4371 12.6667H11.7295C11.6718 12.6667 11.625 12.6199 11.625 12.5621V11.2295C11.625 11.1718 11.6718 11.125 11.7295 11.125H12.4371C12.4949 11.125 12.5417 11.1718 12.5417 11.2295V12.5621Z" fill="#500067"/>
<path d="M12.4081 18.8162C11.4398 18.8162 10.5057 18.67 9.62659 18.3983L12.2605 23.907C12.3198 24.031 12.4964 24.031 12.5557 23.907L15.1897 18.3983C14.3106 18.67 13.3764 18.8162 12.4081 18.8162Z" fill="#7C7878"/>
<path fill-rule="evenodd" clip-rule="evenodd" d="M15.1897 18.3983C19.0277 17.2121 21.8162 13.6358 21.8162 9.40812C21.8162 4.21216 17.6041 0 12.4081 0C7.21216 0 3 4.21216 3 9.40812C3 13.6358 5.78851 17.2121 9.62659 18.3983C10.5057 18.67 11.4398 18.8162 12.4081 18.8162C13.3764 18.8162 14.3106 18.67 15.1897 18.3983ZM12.4899 15.3802C15.8334 15.3802 18.5438 12.6698 18.5438 9.32631C18.5438 5.98282 15.8334 3.27239 12.4899 3.27239C9.14644 3.27239 6.43601 5.98282 6.43601 9.32631C6.43601 12.6698 9.14644 15.3802 12.4899 15.3802Z" fill="#500067"/>
</svg>
